<svg xmlns="http://www.w3.org/2000/svg" xmlns:xlink="http://www.w3.org/1999/xlink" width="524" height="416" fill="none" xmlns:v="https://vecta.io/nano"><style><![CDATA[.B{fill:#777979}.C{fill:#25c16f}.D{fill:#656666}.E{fill:#fff}.F{fill:#263238}.G{fill:#aa6550}.H{fill:#b78876}]]></style><path d="M330.494.05h-61.72v64.34h61.72V.05z" class="B"/><g class="D"><path d="M326.314.05h-61.72v64.34h61.72V.05z"/><path d="M326.334 64.41h-61.76V0h61.76v64.41zm-61.72 0h61.69V.07h-61.69v64.34z"/></g><g class="B"><path d="M318.024 8.7h-45.13v47.04h45.13V8.7zm-45.13 47.35a7.51 7.51 0 0 1-1.12 1.3l-2.87 2.91-2.94 2.82c-.394.412-.834.777-1.31 1.09a7.16 7.16 0 0 1 1.11-1.29l2.88-2.92 2.95-2.83c.39-.409.826-.771 1.3-1.08z"/><path d="M318.024 55.94c.472.318.905.69 1.29 1.11l2.91 2.87 2.82 3c.413.389.779.825 1.09 1.3a6.8 6.8 0 0 1-1.29-1.1l-2.91-2.88-2.83-3a6.65 6.65 0 0 1-1.08-1.3zm-.13-47.12a8.19 8.19 0 0 1 1.12-1.29l2.87-2.91 2.94-2.82a6.96 6.96 0 0 1 1.31-1.09c-.318.472-.69.905-1.11 1.29l-2.87 2.91-3 2.83a6.85 6.85 0 0 1-1.26 1.08zm-45.13.12c-.471-.324-.904-.699-1.29-1.12l-2.91-2.86-2.82-3a6.99 6.99 0 0 1-1.09-1.31 7.19 7.19 0 0 1 1.3 1.16l2.92 2.88 2.82 3a6.37 6.37 0 0 1 1.07 1.25z"/><path d="M317.894 55.74v-.23-.65-2.54-9.59l-.09-34 .17.17h-45l.2-.2v47l-.17-.17 32.58.09h9.16 2.42-2.39-9.12l-32.69.09h-.17v-.17-47-.2h.2 45 .18v.18l-.09 34.14v9.55 2.5.64c-.018.147-.085.285-.19.39z"/></g><path d="M302.984 24.69h-15.06v15.06h15.06V24.69z" class="D"/><path d="M118.214 26.63h-86.78v90.46h86.78V26.63z" class="B"/><g class="D"><path d="M112.334 26.63h-86.78v90.46h86.78V26.63z"/><path d="M112.364 117.11h-86.83V26.6h86.83v90.51zm-86.78-.05h86.73V26.65h-86.73v90.41z"/></g><path d="M100.674 38.79h-63.45v66.14h63.45V38.79zm-63.45 66.58c-.45.667-.976 1.278-1.57 1.82l-4 4.09-4.14 4a9.67 9.67 0 0 1-1.84 1.53 10.97 10.97 0 0 1 1.53-1.81l4-4.1 4.15-4c.558-.585 1.186-1.099 1.87-1.53z" class="B"/><path d="M100.674 105.2c.663.453 1.274.98 1.82 1.57l4.09 4 4 4.15a9.86 9.86 0 0 1 1.53 1.83 9.87 9.87 0 0 1-1.81-1.56l-4.1-4-4-4.15a9.44 9.44 0 0 1-1.53-1.84z" fill="#e0e0e0"/><path d="M100.494 39c.453-.664.98-1.274 1.57-1.82l4-4.09 4.15-4c.545-.582 1.16-1.096 1.83-1.53a9.89 9.89 0 0 1-1.56 1.81l-4 4.1-4.15 4a9.48 9.48 0 0 1-1.84 1.53zm-63.44.13c-.666-.451-1.277-.977-1.82-1.57l-4.09-4-4-4.15a10.37 10.37 0 0 1-1.53-1.83 9.14 9.14 0 0 1 1.81 1.56l4.1 4 4 4.15a9.99 9.99 0 0 1 1.53 1.84z" class="B"/><path d="M100.494 104.93v-.32-.93-3.57l-.07-13.48-.12-47.84.24.24h-63.26l.28-.28v66.14l-.24-.24 45.81.12 12.87.06h3.41.88a1.67 1.67 0 0 1 .3 0h-1.13-3.36l-12.91.17-46 .13h-.24v-.24-66.14-.28h.29 63.26.25v.25l-.13 48-.06 13.42v3.53.89c-.01.126-.033.25-.07.37zm-20.96-43.66h-21.17v21.17h21.17V61.27z" class="D"/><path d="M443.004 52.56h-90.73v94.58h90.73V52.56z" class="B"/><g class="D"><path d="M436.854 52.56h-90.73v94.58h90.73V52.56z"/><path d="M436.894 147.17h-90.79V52.53h90.79v94.64zm-90.74-.06h90.68V52.59h-90.68v94.52z"/></g><path d="M424.664 65.27h-66.34v69.15h66.34V65.27z" class="B"/><path d="M358.324 134.89c-.475.692-1.025 1.33-1.64 1.9l-4.21 4.28-4.34 4.14c-.574.604-1.215 1.141-1.91 1.6a9.81 9.81 0 0 1 1.62-1.89l4.23-4.29 4.34-4.15c.571-.604 1.213-1.137 1.91-1.59z" fill="#e0e0e0"/><g class="B"><path d="M424.664 134.72c.693.469 1.331 1.016 1.9 1.63l4.28 4.22 4.15 4.34a10.58 10.58 0 0 1 1.59 1.91c-.689-.468-1.323-1.011-1.89-1.62l-4.28-4.23-4.16-4.34a10.54 10.54 0 0 1-1.59-1.91zm-.18-69.26c.471-.695 1.022-1.332 1.64-1.9l4.21-4.28 4.34-4.15a10.51 10.51 0 0 1 1.91-1.59 10.6 10.6 0 0 1-1.62 1.89l-4.23 4.28-4.34 4.16a10.54 10.54 0 0 1-1.91 1.59zm-66.34.17c-.695-.471-1.332-1.022-1.9-1.64l-4.28-4.22-4.15-4.33c-.608-.571-1.142-1.216-1.59-1.92.687.474 1.32 1.02 1.89 1.63l4.28 4.23 4.16 4.34a10.56 10.56 0 0 1 1.59 1.91z"/><path d="M424.484 134.43a2.41 2.41 0 0 1 0-.34v-1-3.74l-.07-14.09-.13-50 .26.26h-66.15l.29-.3v69.16l-.25-.25 47.9.12 13.46.07h3.56.92.32-.29-.9-3.51l-13.4.06-48.06.13h-.25v-.25V65.1 65h.3 66.15.26v.25l-.13 50.19-.07 14v3.68.94c0 .23-.21.37-.21.37z"/></g><path d="M402.564 88.78h-22.14v22.14h22.14V88.78zM30.144 369.01v46.31h67.73 74.71v-46.31H30.144z" class="D"/><g class="B"><path d="M24.164 356.06v12.95h153.39v-12.95h-79.68-73.71z"/><path d="M100.864 415.32h71.72v-46.31h4.97v-12.95h-79.68v11.75l2.99 47.51zm-21.91-38.84h-28.89v6.97h28.89v-6.97zm4.48 15.69h-37.09v14.72h37.09v-14.72z"/></g><path d="M230.274 280.57s-2.34-10.16-11.77-9.65-11.72.51-15.79 0-10.39-5.41-12.17-3.89-.79 4.85 2.52 7.79 9 5 9 5l-12.05 2.07s-10.86-5.8-13.41-4.78a3.94 3.94 0 0 0-1.772 1.553c-.418.687-.616 1.485-.568 2.287 0 0-4.51-2-5.78-.24s-1.59 3-.31 4c0 0-.84-.83-3.18-.14-2 .59-1.83 4.28 0 5.27l.62.36 17.6 9.9c3 .4 21.42-.38 30.9-.82 1.711-.08 3.413.297 4.931 1.091s2.798 1.978 3.709 3.429l15.26 24.2 17.24-19.9-24.98-27.53z" class="H"/><g class="G"><path d="M199.314 286.13c-.913.276-1.846.483-2.79.62l-7.15 1.26h-.07-.07l-3.86-1.77-9.21-4.24-2.78-1.32c-.355-.145-.691-.333-1-.56.37.08.729.204 1.07.37l2.85 1.17 4.19 1.81 5.09 2.32 3.85 1.79h-.15l7.18-1.08c.939-.198 1.892-.322 2.85-.37zm-4.23 4.53c-2.8 1.071-5.202 2.977-6.88 5.46.556-1.441 1.487-2.707 2.696-3.667a8.66 8.66 0 0 1 4.184-1.793zm19.55-14.24c.06 0 .11.62.44 1.62a8.51 8.51 0 0 0 2.32 3.58l.35.31-.46.09a24.3 24.3 0 0 0-4.68 1.39c-2.386.982-4.603 2.332-6.57 4l-2.38 2.18c-.07-.06.15-.28.5-.72.506-.61 1.051-1.188 1.63-1.73a22.07 22.07 0 0 1 6.62-4.24c1.544-.633 3.154-1.092 4.8-1.37l-.12.4a8.1 8.1 0 0 1-2.28-3.84c-.174-.538-.232-1.108-.17-1.67zm-11.29 2.88a28.44 28.44 0 0 1-6.57 1.77l-4.76.7a7.49 7.49 0 0 1-2 .08c0-.16 3-.6 6.66-1.29l4.7-.93c.642-.185 1.303-.295 1.97-.33z"/><path d="M187.304 292.64a25.18 25.18 0 0 1-2.85-1.15l-6.93-2.62-6.94-2.65c-.968-.353-1.896-.805-2.77-1.35a23.2 23.2 0 0 1 2.9 1l7 2.5 6.89 2.78a13.51 13.51 0 0 1 2.7 1.49zm4.34-.41c-2.304 1.057-4.894 1.314-7.36.73 0-.15 1.68-.06 3.69-.27l3.67-.46z"/></g><g class="C"><path d="M286.674 233.81s-15.25 8.77-18.44 35.57c-1.66 14-7.75 39.95-7.75 39.95l-12.53-14.06-18.93 21.66s20.45 43.65 32 55.55 34.46 15.57 34.46 15.57l4.61-72.95-13.42-81.29z"/><path d="M402.304 221.76l-35.23-6.17-44.91 2.23s-37.4 15.44-35.49 16l-7.29 72.18 18.06 34.88-4.49 74.31h124l-6.47-51.66-8.11-62.25 15.39 48.19 2.33 65.72h34.5c3.65-28.62 4.79-68.38 4.79-68.38l-28.16-92a53.65 53.65 0 0 0-23.85-30.58c-1.605-.987-3.304-1.814-5.07-2.47z"/></g><path d="M286.274 270.23l.08.37.2 1.09.73 4.18 2.49 15.4c1 6.51 2.18 14.28 3.18 22.92s2.09 18.18 2.67 28.22l.15 2.73-1.67 49.64-.75 14.93-.27 4c0 .44-.06.79-.08 1.05.008.12.008.24 0 .36a1.97 1.97 0 0 1 0-.36v-1.06c0-.95.1-2.31.18-4l.58-14.94 1.51-49.63c0-.86-.1-1.79-.15-2.73-.58-10-1.59-19.55-2.63-28.19l-3.1-22.92-2.33-15.43-.63-4.2-.15-1.09a1.76 1.76 0 0 1-.01-.34zm108.09 3.92c-.062-.146-.099-.302-.11-.46l-.23-1.34c0-.3-.09-.62-.14-1s-.06-.74-.09-1.16a24.92 24.92 0 0 1-.09-2.84v-1.65c0-.57.1-1.17.16-1.79.126-1.314.327-2.619.6-3.91a42.92 42.92 0 0 1 2.86-8.6 43.78 43.78 0 0 1 4.75-7.72c.82-1.046 1.694-2.047 2.62-3l1.26-1.27 1.25-1.09c.71-.624 1.455-1.209 2.23-1.75l1-.68.83-.51 1.17-.69c.133-.083.273-.154.42-.21 0 0-.11.12-.37.3l-1.1.77-.81.54-.91.71a27.07 27.07 0 0 0-2.17 1.8l-1.21 1.1c-.42.39-.81.84-1.23 1.28-.905.952-1.757 1.953-2.55 3-3.69 4.753-6.27 10.271-7.55 16.15a36.76 36.76 0 0 0-.64 3.86c-.07.61-.16 1.19-.19 1.76l-.07 1.64c-.08 1 0 2 0 2.81v1.16c0 .36.07.67.11 1l.12 1.34c.046.146.073.297.08.45zm23.36 75.32a2.63 2.63 0 0 1-.23-.6l-.57-1.74-2-6.4-6.69-21.11-7.16-20.95-2.67-6.15-.7-1.69a4.35 4.35 0 0 1-.2-.61 3.01 3.01 0 0 1 .3.57l.78 1.65 2.83 6.09c2.1 5.29 4.63 12.7 7.31 20.93l6.56 21.16 1.85 6.46.47 1.76c.063.205.103.416.12.63zm25.99-2.3c0 .09-1.34-.29-3.51-.63a33.69 33.69 0 0 0-8.53-.2 33.32 33.32 0 0 0-8.29 2l-3.29 1.38a3.58 3.58 0 0 1 .8-.54 21.86 21.86 0 0 1 2.35-1.18 29.35 29.35 0 0 1 8.37-2.2c2.884-.317 5.8-.199 8.65.35a20.32 20.32 0 0 1 2.55.64c.316.084.619.212.9.38zm-155.98-5.09a12.7 12.7 0 0 1-.93-1.39l-2.72-3.65c-2.39-3-5.9-7-9.8-11.43l-9.92-11.35-2.91-3.52c-.37-.418-.704-.867-1-1.34.42.367.804.772 1.15 1.21l3 3.41 10 11.24c3.9 4.41 7.37 8.46 9.7 11.55.934 1.209 1.802 2.468 2.6 3.77.28.46.46.84.59 1.1s.26.39.24.4z" class="F"/><path opacity=".09" d="M294.624 388.05c.56-20.2 1.61-38.82-.22-58.76-.82 17.7-7.26 38.41-13.75 54.9l13.97 3.86zm107.71-86.77s-5.75-12.86-5.36-12.86c-.57 24.06 4.33 51.68 13.33 74l-7.97-61.14z" fill="#000"/><path d="M386.524 369.48c-.221.161-.451.307-.69.44l-2 1.17-7.37 4.43c-3.09 1.91-6.78 4.16-11 6.53a96.89 96.89 0 0 1-14.14 6.68 47.52 47.52 0 0 1-15.33 3.12 23.07 23.07 0 0 1-6.79-1c-1.922-.588-3.716-1.531-5.29-2.78-2.322-1.782-3.994-4.276-4.76-7.1-.189-.763-.293-1.544-.31-2.33a5.1 5.1 0 0 1 .05-.81c.046 1.043.2 2.079.46 3.09.826 2.738 2.5 5.143 4.78 6.87a15.99 15.99 0 0 0 5.2 2.65 22.86 22.86 0 0 0 6.66.89c5.186-.219 10.302-1.276 15.15-3.13 4.86-1.837 9.57-4.047 14.09-6.61 4.18-2.34 7.88-4.58 11-6.43l7.46-4.29 2.07-1.09c.243-.125.497-.225.76-.3zm-.15-29.29c-.084.589-.215 1.171-.39 1.74-.157.677-.35 1.344-.58 2l-.92 2.62-1.32 3.09-1.76 3.44a51.4 51.4 0 0 1-11.18 13.62l-3 2.4s-1.91 1.35-2.78 1.9-1.67 1-2.38 1.42-1.34.72-1.86 1c-.527.275-1.072.516-1.63.72.489-.339 1.004-.64 1.54-.9l1.8-1s1.5-.87 2.33-1.47 1.78-1.19 2.72-1.93l3-2.42a54 54 0 0 0 10.99-13.57l1.79-3.39s1-2.1 1.37-3 .7-1.81 1-2.57.51-1.43.67-2a10.65 10.65 0 0 1 .59-1.7z" class="F"/><path d="M288.044 294.07c0 .14-5.24-.89-11.63-2.3s-11.56-2.66-11.52-2.8 5.23.88 11.63 2.29 11.55 2.67 11.52 2.81zm0-5.86a18.74 18.74 0 0 1-3.29-.37l-7.87-1.39-7.83-1.53a24.64 24.64 0 0 1-3.23-.74c1.105.027 2.206.15 3.29.37l7.87 1.39 7.83 1.54a23.83 23.83 0 0 1 3.23.73zm106.51.79c0 .14-22.51.09-50.28-.12l-50.27-.64c0-.14 22.51-.09 50.28.12l50.27.64zm1.66 5.07c0 .14-23.16.26-51.73.26s-51.73-.12-51.73-.26 23.16-.26 51.73-.26l51.73.26zm42.16-11.88h.12c.12 0-.09 0-.15.06h-.09v-.1h.44l-.31.11c-1.84.68-9.58 3.3-18.71 6.78l-13.46 5.17-4.08 1.56c-.492.215-1 .389-1.52.52.457-.278.939-.513 1.44-.7l4-1.72a440.05 440.05 0 0 1 13.41-5.32c9.15-3.48 17-5.94 18.87-6.4v.11h-.12v-.1h.09c.06 0 .11 0 .15.08l-.08-.05zm-.82-6.46c0 .14-8.73 3.21-19.61 6.86l-19.77 6.38c-.04-.13 8.73-3.21 19.61-6.87l19.77-6.37zm-66.89-59.39a4.25 4.25 0 0 1 .09.81 19.11 19.11 0 0 1 .06 2.32 25.12 25.12 0 0 1-1.77 8.37 25.85 25.85 0 0 1-7.42 10.25 25.47 25.47 0 0 1-14.381 5.551c-5.252.321-10.474-.993-14.949-3.761-3.597-2.325-6.556-5.511-8.61-9.27-1.383-2.518-2.323-5.254-2.78-8.09-.122-.768-.196-1.543-.22-2.32a3.78 3.78 0 0 1 0-.81c.063.266.1.537.11.81 0 .53.15 1.3.32 2.29.532 2.786 1.511 5.467 2.9 7.94 2.072 3.65 5.003 6.74 8.54 9a25.18 25.18 0 0 0 14.667 3.65c5.147-.315 10.074-2.204 14.113-5.41a25.84 25.84 0 0 0 6.531-8.165c1.597-3.138 2.536-6.57 2.759-10.085 0-1 .06-1.78 0-2.31-.009-.257.005-.515.04-.77zm-121.83 81c-.132.355-.311.691-.53 1l-1.63 2.51a102.78 102.78 0 0 1-6 7.84c-2.129 2.514-4.386 4.917-6.76 7.2l-2.2 2c-.258.262-.551.488-.87.67.216-.296.46-.571.73-.82l2.08-2.14 6.62-7.28 6.1-7.72 1.76-2.4a4.52 4.52 0 0 1 .7-.86z" fill="#fafafa"/><path opacity=".09" d="M361.804 372.3c-5.05 2.87-11.86 3.33-17.94 3.49-1.146.103-2.301-.05-3.38-.45-.536-.209-.996-.575-1.321-1.049s-.498-1.036-.499-1.611c.13-1.38 1.5-2.26 2.77-2.79 4.91-2 10.42-1.92 15.58-3.21 8.78-2.21 17.75-8.48 24.59-14.42a53.49 53.49 0 0 1-19.8 20" fill="#000"/><path d="M342.894 240c-5.69-.453-10.996-3.046-14.848-7.257s-5.966-9.726-5.912-15.433l.1-10.12s-18.1-2.81-18.32-20.91 2.91-59.67 2.91-59.67a62.9 62.9 0 0 1 63.22 7.95l2.68 2.06-5.52 82.38a22.55 22.55 0 0 1-2.318 8.571 22.58 22.58 0 0 1-5.445 7.013 22.57 22.57 0 0 1-7.73 4.369c-2.841.929-5.838 1.285-8.817 1.047z" class="H"/><path d="M322.204 206.91c8.357.157 16.572-2.175 23.6-6.7 0 0-5.57 13-23.64 11.39l.04-4.69z" class="G"/><path d="M370.494 155.35c.31-.13 12.44-3.68 12 8.7s-12.74 9.42-12.75 9.07.75-17.77.75-17.77z" class="H"/><path d="M373.714 168.55c.06 0 .21.16.57.34a2.18 2.18 0 0 0 1.61.08c1.32-.44 2.49-2.48 2.62-4.71.067-1.058-.104-2.117-.5-3.1-.105-.39-.302-.75-.576-1.047a2.51 2.51 0 0 0-.994-.663c-.246-.073-.509-.058-.744.043s-.429.28-.546.507c-.18.34-.11.59-.17.61s-.26-.21-.15-.72a1.41 1.41 0 0 1 .51-.76 1.68 1.68 0 0 1 1.21-.28c.507.115.975.36 1.359.71s.67.795.831 1.29a7.29 7.29 0 0 1 .63 3.47c-.15 2.5-1.51 4.79-3.31 5.25-.341.092-.699.105-1.045.037s-.674-.213-.955-.427c-.34-.33-.39-.61-.35-.63z" class="G"/><path d="M313.394 155.61a2.58 2.58 0 0 0 .713 1.812c.465.488 1.103.775 1.777.798.329.027.661-.012.974-.115s.604-.268.853-.486a2.47 2.47 0 0 0 .843-1.729 2.59 2.59 0 0 0-2.49-2.61 2.48 2.48 0 0 0-.975.115c-.314.103-.604.268-.853.486s-.452.482-.596.779a2.47 2.47 0 0 0-.246.95zm-3.14-3.56c.32.34 2.27-1.11 5.06-1.1s4.82 1.4 5.12 1.06c.15-.15-.18-.76-1.07-1.41-1.204-.833-2.636-1.273-4.1-1.26a6.79 6.79 0 0 0-4 1.3c-.88.65-1.17 1.26-1.01 1.41zm29.85 4.17a2.59 2.59 0 0 0 2.49 2.61 2.47 2.47 0 0 0 .973-.118c.313-.104.603-.269.852-.486a2.48 2.48 0 0 0 .596-.778c.145-.296.23-.619.249-.948a2.58 2.58 0 0 0-2.49-2.61 2.48 2.48 0 0 0-.975.115c-.314.103-.604.268-.853.486s-.452.482-.596.779a2.47 2.47 0 0 0-.246.95zm-2.51-3.65c.32.34 2.28-1.11 5.06-1.1s4.82 1.4 5.12 1.06c.15-.15-.17-.76-1.06-1.41-1.205-.831-2.636-1.271-4.1-1.26-1.438-.003-2.839.452-4 1.3-.89.65-1.18 1.26-1.02 1.41zm-10.1 20.63c0-.16-1.71-.45-4.51-.81-.71-.08-1.39-.22-1.51-.7a3.66 3.66 0 0 1 .48-2.11l2.1-5.41c2.92-7.7 5-14 4.72-14.14s-2.93 6-5.85 13.73l-2 5.44a4.13 4.13 0 0 0-.37 2.79c.107.244.268.461.47.634a1.77 1.77 0 0 0 .7.366c.391.109.794.166 1.2.17 2.81.19 4.56.2 4.57.04zm9.38-31.53c.28.76 3.05.4 6.32.79s5.9 1.29 6.33.61c.2-.33-.26-1-1.33-1.77-1.421-.896-3.028-1.457-4.698-1.641a11.07 11.07 0 0 0-4.942.581c-1.19.48-1.8 1.07-1.68 1.43zm-25.6 2.33c.49.64 2.4 0 4.71-.05s4.25.42 4.7-.24c.2-.32-.11-1-1-1.55-1.141-.726-2.48-1.076-3.83-1a6.53 6.53 0 0 0-3.76 1.27c-.77.57-1.04 1.27-.82 1.57zm-13.27-28.84a6.69 6.69 0 0 1 .459-3.319c.432-1.05 1.124-1.973 2.011-2.681a4.74 4.74 0 0 1 3.155-.903c1.125.085 2.184.568 2.985 1.363a5.52 5.52 0 0 1-.029-2.3 5.54 5.54 0 0 1 .91-2.113c.447-.632 1.023-1.164 1.69-1.56a5.54 5.54 0 0 1 2.179-.737c3-.18 5.47 2.05 8.33 2.83s5.77.1 8.45-1l7.89-3.56a23.16 23.16 0 0 1 17.601.712c5.544 2.547 9.86 7.178 12.009 12.888 4-1.24 8.46.77 10.9 4.12s3.07 7.76 2.58 11.88c-.379 2.809-1.073 5.567-2.07 8.22v.7c-.19 9.95-1.31 21.64-5.56 21.7-7.4.12-5.64-13.83-5.64-13.83-9.08-3.51-5.7-17.12-8-19.18s-7-6.86-26 2.86c-7.38 3.77-17.2 3.65-22.56 2.44l-.48-.1h-.11a1.02 1.02 0 0 0-.15-.06 17.35 17.35 0 0 1-4.88-2.07 9.67 9.67 0 0 1-4-4.47c-.401-.94-.52-1.977-.343-2.984a5.27 5.27 0 0 1 1.343-2.686 11.58 11.58 0 0 1-2.67-6.16z" class="F"/><path d="M325.134 181.76a12.56 12.56 0 0 0 1.62 3.16c.348.487.795.893 1.312 1.193a4.21 4.21 0 0 0 1.688.547 3.77 3.77 0 0 0 3.19-1.74c.675-1.084.987-2.356.89-3.63-.05-1.14-.58-2.5-1.71-2.64a2.79 2.79 0 0 0-1.38.31l-6 2.42" class="G"/><path d="M327.524 186.67a8.36 8.36 0 0 0 3.18-.39 4.57 4.57 0 0 0 2.41-2.19c.285-.608.44-1.27.454-1.941s-.114-1.34-.374-1.959a4.41 4.41 0 0 0-.52-.9c-.24-.24-.2-.23-.45-.2s-.64.26-1 .38l-1 .4-3.41 1.33c-2 .73-3.2 1.12-3.25 1s1.07-.76 2.95-1.67l3.32-1.54 1-.44a11.25 11.25 0 0 1 1.09-.45 1.44 1.44 0 0 1 .89 0 1.73 1.73 0 0 1 .66.52 5.45 5.45 0 0 1 .48 5.91 5.07 5.07 0 0 1-3 2.45c-.835.268-1.727.302-2.58.1-.6-.15-.88-.35-.85-.41z" class="F"/><path d="M358.504 126.65c.075-.728.075-1.462 0-2.19a8.49 8.49 0 0 0-2.83-5.08c-2.266-1.918-5.188-2.883-8.15-2.69-3.35 0-6.91 1.12-10.59 2.36a57 57 0 0 1-5.48 1.59 28.37 28.37 0 0 1-5.29.65 28.82 28.82 0 0 1-8.92-1.18 27.42 27.42 0 0 1-5.58-2.36c-.482-.264-.95-.555-1.4-.87-.165-.097-.319-.211-.46-.34 0 0 .69.38 2 1 1.787.908 3.659 1.639 5.59 2.18a28.62 28.62 0 0 0 14 .38c1.77-.4 3.58-1 5.43-1.58 3.67-1.24 7.3-2.35 10.75-2.36a11.8 11.8 0 0 1 8.38 2.94 8.6 8.6 0 0 1 2.78 5.34 5.05 5.05 0 0 1-.23 2.21zm14.08 30.59s-.1-.12-.24-.38a10.52 10.52 0 0 1-.56-1.15 23.07 23.07 0 0 1-1.45-4.5 24.74 24.74 0 0 1-.46-7 61.31 61.31 0 0 1 1.61-8.41c.715-2.727.715-5.593 0-8.32-.346-1.163-.939-2.238-1.74-3.15a6.31 6.31 0 0 0-2.6-1.71 6 6 0 0 0-4.46.12 7.78 7.78 0 0 0-1.39 1c.322-.492.766-.892 1.29-1.16a6 6 0 0 1 4.68-.28c1.072.337 2.039.943 2.81 1.76a8.86 8.86 0 0 1 1.88 3.3 16.62 16.62 0 0 1 0 8.58c-.727 2.741-1.275 5.527-1.64 8.34a25.51 25.51 0 0 0 .34 6.89c.293 1.531.718 3.033 1.27 4.49l.66 1.58zm-12.34-32.05c-.022-.243-.022-.487 0-.73l.07-2.07c.122-2.535-.158-5.073-.83-7.52a13.34 13.34 0 0 0-2.42-4.57 9.37 9.37 0 0 0-4.85-3.2c-2.144-.496-4.383-.406-6.48.26a29.92 29.92 0 0 0-6.48 2.94 53.48 53.48 0 0 1-6.42 3.3c-2.113.826-4.353 1.276-6.62 1.33a21.11 21.11 0 0 1-6.07-.74c-1.707-.479-3.354-1.15-4.91-2a20.09 20.09 0 0 1-5.83-5c-.436-.543-.831-1.118-1.18-1.72-.132-.204-.249-.418-.35-.64a3.22 3.22 0 0 1 .44.58 17.39 17.39 0 0 0 1.25 1.65 20.82 20.82 0 0 0 5.85 4.77c1.541.818 3.168 1.466 4.85 1.93 1.933.513 3.931.742 5.93.68 2.207-.064 4.386-.511 6.44-1.32a54.11 54.11 0 0 0 6.36-3.29 29.86 29.86 0 0 1 6.6-3 12.72 12.72 0 0 1 6.74-.24 9.76 9.76 0 0 1 5.07 3.4 13.58 13.58 0 0 1 2.44 4.74c.649 2.488.879 5.067.68 7.63l-.18 2.08c-.005.253-.038.505-.1.75z" fill="#455a64"/><path d="M467.044 415.19c0 .14-101.63.26-227 .26s-227-.12-227-.26 101.61-.26 227-.26l227 .26z" class="B"/><use xlink:href="#B" class="C"/><use xlink:href="#B" opacity=".04" fill="#a3abaf"/><path d="M193.954 388c3.2-1.53 6.808-1.989 10.29-1.31a8.54 8.54 0 0 1 5.1 2.24c1.28 1.4 1.53 3.86.08 5.08a4.88 4.88 0 0 1-3.2.83c-2.73 0-5.75-.48-7.92 1.17-1.23.94-2.05 2.5-3.53 3-.741.176-1.52.107-2.218-.198s-1.278-.828-1.652-1.492a6 6 0 0 1-.46-4.43c.166-1.031.569-2.01 1.179-2.859a6.74 6.74 0 0 1 2.331-2.031zm-12.48-9.91c.973-1.293 1.618-2.803 1.88-4.4a10 10 0 0 0-.38-4.77 17.69 17.69 0 0 0-5.47-7.84 29.32 29.32 0 0 0-9.75-5.68 10.47 10.47 0 0 0-4.38-.71c-.745.046-1.468.274-2.104.665a4.56 4.56 0 0 0-1.546 1.575c-1 1.95 0 4.31 1 6.24a75.29 75.29 0 0 0 6.44 9.68c1.93 2.45 4.13 4.87 7.05 6s5.95.95 7.49-1.08" class="C"/><g fill="#a3abaf"><path d="M186.824 415.4c.094-.407.148-.822.16-1.24l.31-3.39c.158-1.679.405-3.348.74-5a38.02 38.02 0 0 1 1.77-5.89 21.68 21.68 0 0 1 3-5.33c1.007-1.322 2.295-2.404 3.77-3.17a10.65 10.65 0 0 1 3.19-1 6.34 6.34 0 0 0 1.24-.18c-.419-.047-.842-.047-1.26 0a9.67 9.67 0 0 0-3.33.89c-1.562.745-2.93 1.84-4 3.2-1.286 1.652-2.32 3.486-3.07 5.44a35.82 35.82 0 0 0-1.77 6 44.47 44.47 0 0 0-.63 5l-.15 3.42a5.23 5.23 0 0 0 .03 1.25z"/><path d="M187.034 412.79c.025-.189.025-.381 0-.57v-1.65-6.07c.1-5.11.5-12.18 1.3-19.95s1.91-14.76 2.92-19.77a120.69 120.69 0 0 1 .7-3.39l.58-2.54c.18-.7.28-1.18.38-1.6.057-.185.087-.377.09-.57a2.86 2.86 0 0 0-.19.54c-.13.41-.28.94-.47 1.58s-.42 1.54-.67 2.53-.52 2.12-.78 3.37c-1.374 6.541-2.398 13.15-3.07 19.8-.81 7.78-1.15 14.87-1.15 20 0 2.56.05 4.64.12 6.07 0 .67.08 1.22.11 1.65.025.194.069.384.13.57z"/><path d="M186.954 399.13a9.88 9.88 0 0 0 0-1.72 46.08 46.08 0 0 0-.56-4.67 64.09 64.09 0 0 0-4.44-14.82c-1.997-4.809-4.854-9.215-8.43-13-.627-.649-1.295-1.257-2-1.82-.3-.25-.57-.5-.84-.7l-.77-.52c-.456-.348-.941-.656-1.45-.92a49.88 49.88 0 0 1 4.78 4.21c3.449 3.809 6.228 8.174 8.22 12.91 1.143 2.599 2.112 5.272 2.9 8 .76 2.5 1.27 4.79 1.66 6.73s.58 3.52.71 4.62a12.47 12.47 0 0 0 .22 1.7z"/></g><g class="C"><path d="M206.084 260.893l-42.43-1.81v-42.42h42.43v44.23z"/><path d="M222.904 204.523h-42.43v42.43h42.43v-42.43z"/><path d="M206.084 259.083l16.82-12.13v-42.43l-16.82 12.14v42.42z"/><path d="M163.654 216.663l16.82-12.14h42.43l-16.82 12.14h-42.43z"/><path d="M206.084 260.893l16.82-13.94v-42.43l-16.82 12.14v44.23z"/></g><path opacity=".3" d="M163.654 216.663l16.82-12.14h42.43l-16.82 12.14h-42.43z" class="E"/><path opacity=".4" d="M206.084 260.893l16.82-13.94v-42.43l-16.82 12.14v44.23z" fill="#000"/><g class="C"><path d="M228.834 248.573c.253.807.342 1.658.26 2.5l-.1.21h-.06l-.1.07-.2.15-.38.27-.67.43c-.39.24-.65.36-.69.3s.14-.28.47-.59l.6-.52.36-.3.2-.15.1-.08c0 .1.11-.2-.1.21a6.31 6.31 0 0 1 .31-2.5h0zm0-10.72a13.93 13.93 0 0 1 0 5.36 13.93 13.93 0 0 1 0-5.36zm0-10.72a13.93 13.93 0 0 1 0 5.36 13.93 13.93 0 0 1 0-5.36h0zm0-10.71a13.93 13.93 0 0 1 0 5.36 13.93 13.93 0 0 1 0-5.36zm0-10.73a13.93 13.93 0 0 1 0 5.36 13.93 13.93 0 0 1 0-5.36h0zm-2.5-7.86a6.1 6.1 0 0 1 2.5-.26l.26.26v.49.47c0 .3 0 .57-.06.8 0 .45-.11.73-.18.73s-.14-.28-.18-.73c0-.23 0-.5-.06-.8v-1l.26.26a6.32 6.32 0 0 1-2.54-.22zm-9.59 0c1.581-.347 3.219-.347 4.8 0a11.23 11.23 0 0 1-4.8 0h0zm-9.59 0a11.15 11.15 0 0 1 4.79 0 11.15 11.15 0 0 1-4.79 0h0zm-9.59 0a11.15 11.15 0 0 1 4.79 0 11.15 11.15 0 0 1-4.79 0zm-9.61 0a11.15 11.15 0 0 1 4.79 0 11.15 11.15 0 0 1-4.79 0h0zm-9.37.59c0-.07.16-.34.54-.72h.09l1.53-.06a5.6 5.6 0 0 1 2.39.26 5.8 5.8 0 0 1-2.39.26c-.59 0-1.12 0-1.53-.06l.13-.05c-.39.24-.71.37-.76.37zm-7.38 6.09c-.09-.11.66-.89 1.68-1.73s1.92-1.44 2-1.33-.66.88-1.68 1.73-1.91 1.44-2 1.33zm-7.38 6.12c-.09-.11.66-.88 1.68-1.73s1.92-1.44 2-1.33-.66.89-1.68 1.73-1.87 1.45-2 1.33zm-5.64 7.16a6.31 6.31 0 0 1-.24-2.5l.1-.2h.05l.1-.08.19-.15.37-.29.65-.47c.38-.25.63-.38.68-.32s-.13.28-.45.61l-.57.55-.35.31-.19.16-.1.08h-.05c0-.08-.09.2.1-.19a6.35 6.35 0 0 1-.29 2.49h0zm-.1 9.92a6.1 6.1 0 0 1-.23-2.48c-.076-.837.02-1.681.28-2.48a11.76 11.76 0 0 1-.05 5v-.04zm-.13 9.92c-.253-.801-.335-1.646-.24-2.48-.076-.837.02-1.681.28-2.48a6.02 6.02 0 0 1 .24 2.48 6.22 6.22 0 0 1-.28 2.48h0z"/><path d="M157.894 247.553a6.21 6.21 0 0 1-.24-2.48 6.1 6.1 0 0 1 .29-2.48 6.12 6.12 0 0 1 .23 2.48 6.22 6.22 0 0 1-.28 2.48h0zm-.1 9.92a6.1 6.1 0 0 1-.23-2.48c-.076-.837.02-1.681.28-2.48a6.23 6.23 0 0 1 .24 2.48c.075.838-.024 1.682-.29 2.48h0zm2.43 7.5c-.814.24-1.667.315-2.51.22l-.25-.27v-.5-.47c0-.3 0-.57.06-.79.05-.45.12-.73.19-.73s.14.28.18.73a4.69 4.69 0 0 0 .05.8c.05.3 0 .32 0 .47v.47l-.26-.26a6.3 6.3 0 0 1 2.54.33h0zm9.47.15c-.763.251-1.573.33-2.37.23-.799.065-1.603-.038-2.36-.3.763-.251 1.573-.326 2.37-.22.798-.07 1.602.029 2.36.29h0zm9.47.16a5.71 5.71 0 0 1-2.37.22c-.799.075-1.605-.027-2.36-.3a5.71 5.71 0 0 1 2.37-.22 5.57 5.57 0 0 1 2.36.3zm9.48.14a10.94 10.94 0 0 1-4.74-.08 10.94 10.94 0 0 1 4.74.08h0zm9.47.17a10.94 10.94 0 0 1-4.74-.08 5.79 5.79 0 0 1 2.38-.22c.799-.068 1.603.034 2.36.3h0zm9.47.16a5.71 5.71 0 0 1-2.37.22c-.799.071-1.604-.032-2.36-.3a5.71 5.71 0 0 1 2.37-.22 5.4 5.4 0 0 1 2.36.3h0zm7.93-4.59c.08.11-.69.84-1.74 1.63a5.74 5.74 0 0 1-2 1.23c-.09-.12.69-.85 1.73-1.64s1.92-1.34 2.01-1.22zm7.55-5.74c.09.11-.69.85-1.73 1.64-.577.539-1.257.954-2 1.22-.08-.12.69-.85 1.73-1.64s1.89-1.32 2-1.22zm-44.93-59.83c.13-.06.48.39.79 1s.46 1.17.33 1.24-.48-.39-.79-1-.46-1.17-.33-1.24zm-4.39-8.7c.13-.07.73.86 1.33 2.06a6.1 6.1 0 0 1 .87 2.29c-.13.07-.73-.86-1.33-2.06a6.1 6.1 0 0 1-.87-2.29h0zm-4.38-8.71a6.06 6.06 0 0 1 1.33 2.06 6 6 0 0 1 .86 2.3 6.06 6.06 0 0 1-1.33-2.06 5.93 5.93 0 0 1-.86-2.3h0zm-4.41-8.7c.13-.07.72.86 1.33 2.06a6.01 6.01 0 0 1 .86 2.29c-.13.07-.72-.86-1.33-2.06-.441-.696-.734-1.476-.86-2.29h0zm-4.36-8.71c.583.586 1.036 1.288 1.33 2.06a5.99 5.99 0 0 1 .87 2.3c-.583-.586-1.036-1.288-1.33-2.06-.443-.7-.739-1.482-.87-2.3zm-4.38-8.7c.13-.07.72.86 1.33 2.06a6.01 6.01 0 0 1 .86 2.29 6.06 6.06 0 0 1-1.33-2.06c-.441-.696-.734-1.476-.86-2.29h0zm-4.38-8.71a6.06 6.06 0 0 1 1.33 2.06 6.01 6.01 0 0 1 .86 2.29c-.13.07-.72-.85-1.33-2a5.99 5.99 0 0 1-.86-2.35zm-4.39-8.7c.13-.07.73.85 1.33 2.06.444.695.74 1.475.87 2.29-.583-.586-1.036-1.288-1.33-2.06a6.1 6.1 0 0 1-.87-2.29h0zm-3.31-6.59c.13-.06.48.38.79 1s.46 1.17.33 1.23-.48-.38-.79-1-.46-1.16-.33-1.23zm-44.31 82.65c0 .14-.58.22-1.27.16s-1.24-.21-1.23-.35.58-.22 1.27-.17 1.24.22 1.23.36zm10.13.8c-.841.188-1.711.209-2.56.06-.862.016-1.719-.141-2.52-.46a6.53 6.53 0 0 1 2.56-.06c.862-.02 1.72.136 2.52.46zm10.19.79a12.58 12.58 0 0 1-5.08-.4c1.703-.215 3.432-.079 5.08.4h0zm10.16.8a12.58 12.58 0 0 1-5.08-.4c.841-.188 1.711-.209 2.56-.06.863-.023 1.721.133 2.52.46h0zm10.17.79c-.84.194-1.712.215-2.56.06-.862.017-1.718-.136-2.52-.45.838-.205 1.709-.236 2.56-.09.863-.005 1.719.158 2.52.48zm10.16.8c-.841.188-1.711.209-2.56.06-.863.02-1.72-.137-2.52-.46 1.703-.215 3.432-.079 5.08.4h0zm7.57.59c0 .15-.57.22-1.26.17s-1.24-.22-1.23-.36.58-.22 1.27-.16 1.24.21 1.22.35z"/></g><path d="M166.72 100.75c5.482-23.691-9.279-47.34-32.97-52.823s-47.34 9.278-52.823 32.969 9.278 47.341 32.969 52.824 47.341-9.279 52.824-32.97z" class="E"/><path d="M167.464 90.833s0-.24-.06-.72-.08-1.18-.14-2.09c0-.46-.03-.97-.09-1.53-.05-.57-.17-1.18-.27-1.84l-.34-2.15a22.99 22.99 0 0 0-.58-2.4 41.79 41.79 0 0 0-4.87-11.68 43.65 43.65 0 0 0-11.16-12.44l-1.9-1.42-2.06-1.26s-1.38-.89-2.14-1.24l-2.27-1.09-1.15-.55-1.22-.44-2.46-.9c-.84-.28-1.72-.45-2.58-.69a21.4 21.4 0 0 0-2.66-.6c-1.826-.341-3.674-.555-5.53-.64-.95 0-1.9-.13-2.86-.11l-2.9.15c-.48 0-1 0-1.46.09l-1.46.23-2.95.48c-1.983.438-3.934 1.009-5.84 1.71-1.958.707-3.865 1.546-5.71 2.51l-2.73 1.63-1.35.85-1.29 1c-1.758 1.294-3.429 2.704-5 4.22l-2.23 2.45-.56.62-.5.66-1 1.34-1 1.35-.88 1.44-.88 1.45-.44.73-.38.76-1.48 3.09-1.13 3.21a43.45 43.45 0 0 0 0 27.63l1.19 3.24c.39 1.08 1 2.06 1.49 3.09l.37.76.44.73.89 1.45.88 1.44 1 1.35 1 1.34.5.67.56.61 2.22 2.45a49.44 49.44 0 0 0 5 4.23l1.29 1c.43.33.91.57 1.35.86l2.73 1.63c1.845.964 3.752 1.803 5.71 2.51 1.909.692 3.859 1.263 5.84 1.71l2.95.48 1.46.22c.49.07 1 .06 1.46.1l2.9.15 2.86-.11c1.859-.088 3.71-.306 5.54-.65a21.65 21.65 0 0 0 2.65-.6l2.58-.69 2.47-.9 1.21-.44 1.16-.55 2.27-1.09a23.98 23.98 0 0 0 2.14-1.24l2.06-1.26 1.9-1.41a43.93 43.93 0 0 0 11.15-12.44c2.177-3.646 3.789-7.601 4.78-11.73a22.97 22.97 0 0 0 .58-2.4l.34-2.14c.11-.66.22-1.28.27-1.84s.07-1.08.09-1.54l.14-2.09c.03-.49.06-.71.06-.71v.71c0 .47-.05 1.19-.08 2.1 0 .46 0 1-.07 1.54l-.25 1.85a95.8 95.8 0 0 1-.32 2.15 22.51 22.51 0 0 1-.55 2.42 41.82 41.82 0 0 1-4.8 11.82 43.75 43.75 0 0 1-11.18 12.59l-1.9 1.43c-.67.44-1.38.85-2.08 1.28s-1.39.91-2.15 1.26l-2.29 1.11-1.17.56-1.23.45-2.48.91c-.85.28-1.73.47-2.61.71-.878.255-1.769.459-2.67.61-1.85.343-3.721.564-5.6.66-1 0-1.91.13-2.88.12l-2.93-.15c-.49 0-1 0-1.48-.09l-1.48-.22c-1-.16-2-.28-3-.48-4.06-.908-7.986-2.337-11.68-4.25-.94-.51-1.83-1.1-2.76-1.65-.45-.29-.94-.53-1.37-.86l-1.31-1a50.34 50.34 0 0 1-5-4.27l-2.26-2.48-.56-.62-.51-.67-1-1.36-1-1.36-.89-1.46-.94-1.48-.45-.73-.38-.78-1.5-3.12-1.21-3.28a43.88 43.88 0 0 1 0-27.95l1.2-3.28 1.51-3.13.37-.77.45-.73.89-1.47.9-1.46 1-1.36 1-1.36.51-.67.57-.62 2.25-2.48a49.1 49.1 0 0 1 5-4.26l1.3-1c.43-.32.92-.57 1.37-.86.93-.55 1.82-1.14 2.76-1.64 3.694-1.913 7.62-3.342 11.68-4.25 1-.21 2-.32 3-.48l1.48-.22c.49-.07 1-.06 1.48-.1l2.93-.14c1 0 1.93.08 2.88.11a40.68 40.68 0 0 1 5.59.67 21.31 21.31 0 0 1 2.68.61c.88.24 1.76.42 2.6.7l2.49.92 1.23.45 1.16.56 2.3 1.11c.76.35 1.44.84 2.15 1.25a42.42 42.42 0 0 1 2.07 1.28l1.91 1.43a43.89 43.89 0 0 1 11.18 12.59 41.92 41.92 0 0 1 4.82 11.78 23.02 23.02 0 0 1 .55 2.42l.32 2.15c.1.66.2 1.29.25 1.85s.05 1.09.07 1.55c0 .91.06 1.61.08 2.09s.07.74.07.74zm-13.46 177.44c-.09-.1.66-.94 1.69-1.86s1.93-1.59 2-1.48-.66.94-1.69 1.86-1.9 1.63-2 1.48zm-7.43 6.69c-.1-.11.65-.94 1.68-1.87s1.94-1.58 2-1.47-.65.94-1.68 1.86-1.91 1.59-2 1.48zm-7.44 6.69c-.1-.11.66-1 1.69-1.87a6.32 6.32 0 0 1 2-1.48c.09.11-.66.94-1.69 1.87a6.32 6.32 0 0 1-2 1.48zm-7.43 6.68c-.1-.1.65-.94 1.68-1.86s1.94-1.59 2-1.48-.65.94-1.68 1.87-1.91 1.56-2 1.47zm-7.44 6.69c-.1-.11.66-.94 1.69-1.86s1.93-1.59 2-1.48-.66.94-1.69 1.86-1.9 1.59-2 1.48z" class="C"/><path d="M139.789 340.866c5.602-23.663-9.039-47.388-32.702-52.99s-47.387 9.039-52.989 32.701 9.039 47.388 32.702 52.99 47.388-9.039 52.99-32.701z" class="E"/><path d="M141.354 330.713s0-.24-.06-.71-.07-1.18-.13-2.09c0-.46-.06-1-.09-1.54s-.18-1.18-.28-1.84l-.34-2.14c-.146-.81-.336-1.611-.57-2.4-1.028-4.121-2.673-8.062-4.88-11.69a43.8 43.8 0 0 0-11.15-12.44l-1.9-1.44c-.67-.44-1.37-.84-2.07-1.27s-1.37-.89-2.13-1.23l-2.28-1.09-1.16-.55-1.21-.45-2.47-.89c-.84-.28-1.71-.46-2.58-.7-.872-.246-1.757-.446-2.65-.6-1.831-.337-3.681-.551-5.54-.64-.94 0-1.9-.12-2.86-.11l-2.89.15c-.49 0-1 0-1.47.1l-1.46.22c-1 .16-2 .28-2.94.48-1.981.444-3.932 1.015-5.84 1.71a45.02 45.02 0 0 0-5.71 2.51c-.93.5-1.82 1.09-2.73 1.63-.45.29-.93.53-1.35.86l-1.29 1c-1.758 1.294-3.429 2.704-5 4.22l-2.22 2.45-.56.62-.51.67-1 1.34-1 1.34-.88 1.44-.88 1.45-.44.73-.37.77-1.49 3.08c-.49 1.03-.79 2.16-1.19 3.25a43.32 43.32 0 0 0 0 27.62l1.19 3.24c.4 1.07 1 2.07 1.48 3.09l.38.77.44.72.88 1.45.88 1.45 1 1.34 1 1.34.5.67.56.62 2.23 2.45c1.571 1.516 3.242 2.925 5 4.22l1.28 1c.43.32.91.56 1.36.85.91.54 1.8 1.13 2.72 1.63a45.7 45.7 0 0 0 5.72 2.51 44.09 44.09 0 0 0 5.84 1.71c1 .21 2 .32 2.94.48l1.46.23c.49.06 1 .06 1.47.09l2.9.15c1 0 1.91-.08 2.85-.11 1.859-.085 3.71-.299 5.54-.64.895-.142 1.78-.343 2.65-.6.87-.24 1.75-.42 2.58-.69l2.47-.9 1.22-.44 1.15-.55 2.28-1.1c.76-.34 1.43-.83 2.14-1.23s1.39-.83 2.06-1.27l1.89-1.41a43.69 43.69 0 0 0 11.16-12.44 42.44 42.44 0 0 0 4.88-11.74 22.93 22.93 0 0 0 .57-2.4l.34-2.15c.1-.67.22-1.27.28-1.84s.06-1.08.09-1.54l.13-2.09c.03-.49.06-.71.06-.71v.72c0 .48 0 1.18-.08 2.09 0 .46 0 1-.06 1.55s-.16 1.18-.26 1.84l-.31 2.16a23.57 23.57 0 0 1-.56 2.42c-.991 4.15-2.613 8.123-4.81 11.78a44.01 44.01 0 0 1-11.18 12.58l-1.91 1.44c-.67.44-1.38.84-2.07 1.28s-1.39.9-2.16 1.25l-2.29 1.11-1.17.56-1.22.45-2.49.91c-.84.29-1.73.47-2.6.71-.88.259-1.775.462-2.68.61-1.845.353-3.714.573-5.59.66-1 0-1.92.13-2.89.12l-2.93-.14c-.49 0-1 0-1.47-.1l-1.48-.22c-1-.16-2-.27-3-.48-2.007-.44-3.981-1.014-5.91-1.72a46.61 46.61 0 0 1-5.78-2.53c-.93-.5-1.83-1.09-2.76-1.64-.45-.29-.93-.54-1.37-.87l-1.3-1a49.2 49.2 0 0 1-5-4.27l-2.25-2.47-.57-.63-.51-.67-1-1.36-1-1.36-.9-1.45-.89-1.47-.44-.74-.38-.77-1.51-3.13-1.2-3.28a43.79 43.79 0 0 1 0-27.95l1.2-3.28c.51-1 1-2.08 1.51-3.12l.38-.78.45-.73.89-1.47.89-1.45 1-1.37 1-1.35.51-.67.57-.63 2.23-2.41a50.41 50.41 0 0 1 5-4.27l1.31-1c.43-.33.91-.58 1.37-.87.92-.54 1.82-1.13 2.75-1.64a48.09 48.09 0 0 1 5.78-2.53 47.26 47.26 0 0 1 5.94-1.69c1-.2 2-.32 3-.48l1.47-.22c.5-.06 1-.06 1.48-.09l2.93-.15c1 0 1.93.08 2.89.12 1.876.087 3.745.307 5.59.66.901.151 1.792.355 2.67.61.88.24 1.76.43 2.61.71l2.49.91 1.22.45 1.17.56 2.29 1.11c.77.35 1.44.84 2.15 1.25s1.41.84 2.08 1.29l1.9 1.43c4.504 3.432 8.3 7.704 11.18 12.58 2.206 3.657 3.832 7.635 4.82 11.79.23.793.417 1.597.56 2.41l.31 2.16c.09.67.21 1.28.26 1.85s0 1.08.06 1.54c0 .91.07 1.61.08 2.1s-.01.7-.01.7z" class="C"/><use xlink:href="#C" class="E"/><use xlink:href="#D" class="C"/><path d="M54.434 188.253l4.77 9.67a1.27 1.27 0 0 0 .94.67l10.67 1.55a1.24 1.24 0 0 1 1.001.848 1.24 1.24 0 0 1-.321 1.272l-7.72 7.52c-.142.142-.249.316-.309.507a1.25 1.25 0 0 0-.041.593l1.82 10.62a1.24 1.24 0 0 1-.072.678c-.087.215-.232.401-.42.538s-.409.217-.641.234a1.24 1.24 0 0 1-.668-.14l-9.54-5c-.177-.094-.374-.143-.575-.143s-.398.049-.575.143l-9.55 5c-.204.109-.435.159-.667.143a1.23 1.23 0 0 1-1.058-.774 1.23 1.23 0 0 1-.066-.679l1.82-10.62a1.26 1.26 0 0 0-.36-1.1l-7.72-7.52a1.25 1.25 0 0 1-.306-1.272c.072-.219.202-.415.378-.565a1.26 1.26 0 0 1 .618-.283l10.67-1.55a1.25 1.25 0 0 0 .93-.67l4.77-9.67a1.25 1.25 0 0 1 .457-.502c.196-.121.422-.185.653-.185s.457.064.653.185a1.25 1.25 0 0 1 .457.502h0z" fill="#fafafa"/><path d="M54.434 188.253s0-.1-.2-.26a1.2 1.2 0 0 0-1.107-.352 1.21 1.21 0 0 0-.541.257c-.156.129-.277.296-.352.485l-.93 1.94-2.56 5.29-.78 1.6-.41.84a1.42 1.42 0 0 1-.83.67l-4.09.62-4.48.67-2.37.36a1 1 0 0 0-.754.658 1 1 0 0 0 .194.982l7.73 7.54c.21.184.365.422.448.688a1.51 1.51 0 0 1 .022.822l-.24 1.44-.5 2.92-1 6a1 1 0 0 0 .44 1.1c.173.116.383.166.59.14a1.42 1.42 0 0 0 .63-.24l2.83-1.48 5.77-3 .74-.39c.312-.147.664-.186 1-.11.284.086.556.207.81.36l.72.38 2.87 1.51 5.59 2.94a1.01 1.01 0 0 0 .448.072c.153-.011.301-.057.434-.134s.245-.184.33-.312a1 1 0 0 0 .158-.426c-.001-.232-.028-.464-.08-.69l-.51-3-1-5.78-.24-1.4a1.53 1.53 0 0 1 .54-1.46l2-1.91 3.77-3.67 1.8-1.74c.141-.1.254-.234.327-.391a1 1 0 0 0-.075-.982.99.99 0 0 0-.382-.337 3.6 3.6 0 0 0-1.07-.23l-1.17-.17-2.19-.33-4.07-.61-1.88-.28c-.31-.06-.58-.07-.91-.16a1.36 1.36 0 0 1-.75-.6l-2.58-5.3-1.62-3.37-.4-.87-.13-.31a1.29 1.29 0 0 1 .17.28l.45.86 1.69 3.31 2.65 5.24a1.09 1.09 0 0 0 .57.49c.24.07.58.09.87.14l1.87.26 4.08.58 2.19.31 1.14.16c.411.02.817.108 1.2.26.202.116.374.279.5.474a1.46 1.46 0 0 1 .227.652c.022.232-.011.466-.097.682a1.46 1.46 0 0 1-.4.562l-1.78 1.75-3.76 3.68-2 1.93a1 1 0 0 0-.39 1l.24 1.4 1 5.78.52 3c.06.272.087.551.08.83a1.4 1.4 0 0 1-.37.84c-.207.235-.484.397-.789.463a1.47 1.47 0 0 1-.911-.093l-5.63-2.94-2.79-1.51-.72-.38c-.214-.129-.442-.233-.68-.31a1 1 0 0 0-.63.07l-.73.38-5.77 3-2.83 1.49c-.253.156-.535.259-.83.3-.32.026-.64-.055-.91-.23-.264-.168-.47-.414-.588-.705a1.51 1.51 0 0 1-.072-.915l1-6 .51-2.92.24-1.44a1 1 0 0 0-.32-1.09l-7.76-7.61a1.46 1.46 0 0 1-.23-1.39c.077-.226.208-.429.383-.591a1.44 1.44 0 0 1 .617-.339l2.4-.35 4.48-.63 4.06-.58c.269-.08.498-.259.64-.5l.41-.83.8-1.59 2.64-5.25 1-1.92a1.33 1.33 0 0 1 .532-.611 1.32 1.32 0 0 1 .788-.189c.167.012.329.057.477.135a1.21 1.21 0 0 1 .383.315.7.7 0 0 1 .19.3h0z" class="F"/><use xlink:href="#C" class="E"/><path d="M31.102 203.423h1.862v-4.046h1.19l2.618 4.046h2.016l-2.814-4.326c1.246-.322 2.226-1.12 2.226-2.688v-.056c0-2.044-1.54-2.94-3.738-2.94h-3.36v10.01zm1.862-5.376v-3.192h1.498c1.19 0 1.904.392 1.904 1.54v.056c0 1.064-.658 1.596-1.904 1.596h-1.498zm10.118 5.516c1.876 0 3.122-.84 3.36-2.38h-1.638c-.126.714-.658 1.12-1.68 1.12-1.26 0-1.96-.784-2.016-2.17h5.362v-.49c0-2.618-1.638-3.696-3.458-3.696-2.086 0-3.64 1.512-3.64 3.78v.112c0 2.31 1.554 3.724 3.71 3.724zm-1.946-4.564c.168-1.134.854-1.82 1.876-1.82 1.05 0 1.694.56 1.778 1.82h-3.654zm7.141 4.424h1.694v-6.048h1.666v-1.274h-1.666v-1.05c0-.63.28-1.078.966-1.078.308 0 .574.056.77.126v-1.316c-.308-.098-.56-.14-.966-.14-1.568 0-2.464.868-2.464 2.478v.98h-.994v1.274h.994v6.048zm7.725.14c1.876 0 3.122-.84 3.36-2.38h-1.638c-.126.714-.658 1.12-1.68 1.12-1.26 0-1.96-.784-2.016-2.17h5.362v-.49c0-2.618-1.638-3.696-3.458-3.696-2.086 0-3.64 1.512-3.64 3.78v.112c0 2.31 1.554 3.724 3.71 3.724zm-1.946-4.564c.168-1.134.854-1.82 1.876-1.82 1.05 0 1.694.56 1.778 1.82h-3.654zm6.847 4.424h1.694v-3.808c0-1.554.896-2.03 2.38-2.044v-1.582c-1.232.014-1.918.56-2.38 1.484v-1.372h-1.694v7.322zm10.818.14c1.12 0 1.764-.406 2.24-1.036v.896h1.666v-4.802c0-2.002-1.288-2.674-2.926-2.674s-2.996.714-3.136 2.422h1.638c.084-.728.518-1.148 1.4-1.148.994 0 1.33.49 1.33 1.47v.378h-.91c-2.1 0-3.752.616-3.752 2.324 0 1.526 1.106 2.17 2.45 2.17zm.406-1.218c-.84 0-1.176-.406-1.176-1.022 0-.896.826-1.19 2.114-1.19h.868v.728c0 .938-.77 1.484-1.806 1.484z" fill="#585858"/><g class="C"><path d="M31.102 221.423h1.862v-4.102h3.416v-1.442h-3.416v-2.982h4.34v-1.484h-6.202v10.01zm7.407 0h1.694v-3.808c0-1.554.896-2.03 2.38-2.044v-1.582c-1.232.014-1.918.56-2.38 1.484v-1.372h-1.694v7.322zm5.607 0h1.694v-7.322h-1.694v7.322zm.826-8.526c.56 0 1.008-.42 1.008-.966 0-.56-.448-.98-1.008-.98s-1.008.42-1.008.98c0 .546.448.966 1.008.966zm6.153 8.666c1.876 0 3.122-.84 3.36-2.38h-1.638c-.126.714-.658 1.12-1.68 1.12-1.26 0-1.96-.784-2.016-2.17h5.362v-.49c0-2.618-1.638-3.696-3.458-3.696-2.086 0-3.64 1.512-3.64 3.78v.112c0 2.31 1.554 3.724 3.71 3.724zm-1.946-4.564c.168-1.134.854-1.82 1.876-1.82 1.05 0 1.694.56 1.778 1.82h-3.654zm6.847 4.424h1.694v-4.312c0-1.162.77-1.75 1.722-1.75 1.008 0 1.456.504 1.456 1.61v4.452h1.694v-4.606c0-2.016-1.036-2.87-2.506-2.87-1.204 0-2.016.602-2.366 1.316v-1.162h-1.694v7.322zm11.262.14c1.078 0 2.016-.644 2.408-1.372v1.232h1.694v-10.71h-1.694v4.508c-.406-.728-1.148-1.274-2.338-1.274-1.904 0-3.29 1.484-3.29 3.822v.112c0 2.38 1.386 3.682 3.22 3.682zm.42-1.344c-1.092 0-1.904-.77-1.904-2.38v-.112c0-1.582.728-2.45 1.974-2.45 1.232 0 1.974.798 1.974 2.408v.112c0 1.638-.868 2.422-2.044 2.422z"/><use xlink:href="#D"/><path d="M95.148 86h6.132v-1.484h-4.27V75.99h-1.862V86zm10.71-1.176c-1.288 0-2.03-.938-2.03-2.436v-.112c0-1.512.77-2.422 2.03-2.422s2.016.924 2.016 2.436v.098c0 1.498-.756 2.436-2.016 2.436zm-.014 1.316c2.156 0 3.766-1.484 3.766-3.766v-.112c0-2.24-1.61-3.738-3.752-3.738-2.156 0-3.766 1.512-3.766 3.78v.112c0 2.226 1.596 3.724 3.752 3.724zm5.835 2.366h1.666l3.99-9.828h-1.652l-1.792 4.718-1.946-4.718h-1.834l2.898 6.58-1.33 3.248zm8.708-2.366c1.12 0 1.764-.406 2.24-1.036V86h1.666v-4.802c0-2.002-1.288-2.674-2.926-2.674s-2.996.714-3.136 2.422h1.638c.084-.728.518-1.148 1.4-1.148.994 0 1.33.49 1.33 1.47v.378h-.91c-2.1 0-3.752.616-3.752 2.324 0 1.526 1.106 2.17 2.45 2.17zm.406-1.218c-.84 0-1.176-.406-1.176-1.022 0-.896.826-1.19 2.114-1.19h.868v.728c0 .938-.77 1.484-1.806 1.484zM126.277 86h1.694V75.29h-1.694V86zm6.25.126c.518 0 .882-.084 1.148-.182V84.6c-.238.098-.49.14-.826.14-.532 0-.84-.294-.84-.938v-3.85h1.61v-1.274h-1.61v-1.61h-1.694v1.61h-.98v1.274h.98v4.004c0 1.386.756 2.17 2.212 2.17zm3.488 2.38h1.666l3.99-9.828h-1.652l-1.792 4.718-1.946-4.718h-1.834l2.898 6.58-1.33 3.248z"/></g><path d="M95.148 104h1.862v-3.808h1.4c2.142 0 3.668-.938 3.668-3.052v-.056c0-2.1-1.47-3.094-3.71-3.094h-3.22V104zm1.862-5.152v-3.416h1.358c1.19 0 1.89.462 1.89 1.652v.056c0 1.106-.658 1.708-1.89 1.708H97.01zm6.529 5.152h1.694v-3.808c0-1.554.896-2.03 2.38-2.044v-1.582c-1.232.014-1.918.56-2.38 1.484v-1.372h-1.694V104zm8.704-1.176c-1.288 0-2.03-.938-2.03-2.436v-.112c0-1.512.77-2.422 2.03-2.422s2.016.924 2.016 2.436v.098c0 1.498-.756 2.436-2.016 2.436zm-.014 1.316c2.156 0 3.766-1.484 3.766-3.766v-.112c0-2.24-1.61-3.738-3.752-3.738-2.156 0-3.766 1.512-3.766 3.78v.112c0 2.226 1.596 3.724 3.752 3.724zm8.419 2.548c2.268 0 3.71-1.078 3.724-3.234v-6.776h-1.694v1.12c-.42-.728-1.148-1.274-2.352-1.274-1.89 0-3.29 1.54-3.29 3.598v.098c0 2.114 1.414 3.486 3.248 3.486 1.078 0 1.988-.658 2.394-1.358v1.078c0 1.316-.728 1.974-2.044 1.974-1.106 0-1.666-.42-1.806-1.148h-1.708c.196 1.4 1.232 2.436 3.528 2.436zm.056-4.284c-1.092 0-1.932-.84-1.932-2.198v-.112c0-1.33.728-2.24 1.988-2.24 1.218 0 1.974.826 1.974 2.212v.098c0 1.4-.854 2.24-2.03 2.24zm5.681 1.596h1.694v-3.808c0-1.554.896-2.03 2.38-2.044v-1.582c-1.232.014-1.918.56-2.38 1.484v-1.372h-1.694V104zm7.346.14c1.12 0 1.764-.406 2.24-1.036V104h1.666v-4.802c0-2.002-1.288-2.674-2.926-2.674s-2.996.714-3.136 2.422h1.638c.084-.728.518-1.148 1.4-1.148.994 0 1.33.49 1.33 1.47v.378h-.91c-2.1 0-3.752.616-3.752 2.324 0 1.526 1.106 2.17 2.45 2.17zm.406-1.218c-.84 0-1.176-.406-1.176-1.022 0-.896.826-1.19 2.114-1.19h.868v.728c0 .938-.77 1.484-1.806 1.484zm5.441 1.078h1.694v-4.382c0-1.12.77-1.68 1.61-1.68.826 0 1.302.462 1.302 1.54V104h1.694v-4.382c0-1.12.77-1.68 1.61-1.68s1.302.462 1.302 1.54V104h1.694v-4.634c0-2.016-1.092-2.842-2.436-2.842-.91 0-1.918.406-2.478 1.316-.364-.91-1.12-1.316-2.072-1.316-1.078 0-1.876.588-2.226 1.274v-1.12h-1.694V104zM72.516 315h1.876v-10.01h-1.666l-2.324 1.652v1.638l2.114-1.442V315zm8.259-1.344c-1.498 0-2.366-1.148-2.366-3.416v-.504c0-2.226.826-3.43 2.338-3.43 1.498 0 2.31 1.288 2.31 3.416v.49c0 2.268-.742 3.444-2.282 3.444zm-.042 1.484c2.618 0 4.186-1.918 4.186-4.928v-.504c0-3.01-1.652-4.858-4.186-4.858-2.52 0-4.2 1.862-4.2 4.9v.504c0 3.01 1.652 4.886 4.2 4.886zm9.858-1.484c-1.498 0-2.366-1.148-2.366-3.416v-.504c0-2.226.826-3.43 2.338-3.43 1.498 0 2.31 1.288 2.31 3.416v.49c0 2.268-.742 3.444-2.282 3.444zm-.042 1.484c2.618 0 4.186-1.918 4.186-4.928v-.504c0-3.01-1.652-4.858-4.186-4.858-2.52 0-4.2 1.862-4.2 4.9v.504c0 3.01 1.652 4.886 4.2 4.886zm7.704-6.524c-.658 0-1.078-.448-1.078-1.302 0-.84.42-1.302 1.078-1.302s1.064.49 1.064 1.302c0 .826-.406 1.302-1.064 1.302zm-.014 1.134c1.372 0 2.436-1.036 2.436-2.45 0-1.4-1.079-2.408-2.422-2.408s-2.45 1.036-2.45 2.436a2.38 2.38 0 0 0 2.436 2.422zM97.176 315h1.19l6.441-10.01h-1.176L97.176 315zm6.567-.994c-.658 0-1.078-.448-1.078-1.302 0-.84.42-1.302 1.078-1.302s1.064.49 1.064 1.302c0 .826-.406 1.302-1.064 1.302zm-.014 1.134c1.372 0 2.45-1.036 2.45-2.45 0-1.4-1.092-2.408-2.436-2.408a2.4 2.4 0 0 0-2.436 2.436c0 1.386 1.05 2.422 2.422 2.422zM71.102 351h3.85c2.198 0 3.43-.938 3.43-2.8v-.056c0-1.33-.644-2.072-2.002-2.366 1.134-.35 1.582-1.134 1.582-2.128v-.056c0-1.82-1.218-2.604-3.276-2.604h-3.584V351zm1.82-1.33v-3.206h1.68c1.372 0 1.946.518 1.946 1.554v.056c0 1.036-.574 1.596-1.82 1.596h-1.806zm0-4.466v-2.884h1.512c1.19 0 1.736.406 1.736 1.358v.056c0 1.022-.476 1.47-1.708 1.47h-1.54zm10.34 4.62c-1.288 0-2.03-.938-2.03-2.436v-.112c0-1.512.77-2.422 2.03-2.422s2.016.924 2.016 2.436v.098c0 1.498-.756 2.436-2.016 2.436zm-.014 1.316c2.156 0 3.766-1.484 3.766-3.766v-.112c0-2.24-1.61-3.738-3.752-3.738-2.156 0-3.766 1.512-3.766 3.78v.112c0 2.226 1.596 3.724 3.752 3.724zm5.297-.14h1.694v-4.312c0-1.162.77-1.75 1.722-1.75 1.008 0 1.456.504 1.456 1.61V351h1.694v-4.606c0-2.016-1.036-2.87-2.506-2.87-1.204 0-2.016.602-2.366 1.316v-1.162h-1.694V351zm10.968.14c1.19 0 1.96-.574 2.324-1.288V351h1.694v-7.322h-1.694v4.354c0 1.162-.798 1.75-1.708 1.75-.98 0-1.442-.504-1.442-1.61v-4.494h-1.694v4.69c0 1.946 1.078 2.772 2.52 2.772zm8.533 0c1.876 0 2.926-.854 2.926-2.338 0-1.554-1.022-1.974-2.744-2.24-1.162-.196-1.512-.406-1.512-.938 0-.518.434-.868 1.162-.868.784 0 1.162.308 1.302.98h1.568c-.182-1.652-1.372-2.212-2.87-2.212-1.372 0-2.744.728-2.744 2.198 0 1.372.714 1.918 2.646 2.226 1.078.182 1.568.406 1.568 1.008 0 .616-.406.938-1.316.938-.994 0-1.372-.434-1.456-1.176h-1.596c.07 1.554 1.176 2.422 3.066 2.422z" fill="#585858"/><path d="M72.964 331.53v-7.07h1.078c2.352 0 3.332 1.302 3.332 3.458v.112c0 2.212-1.078 3.5-3.318 3.5h-1.092zM71.102 333h3.01c3.514 0 5.208-2.072 5.208-4.984v-.126c0-2.912-1.694-4.9-5.18-4.9h-3.038V333zm13.074.14c1.876 0 3.122-.84 3.36-2.38h-1.638c-.126.714-.658 1.12-1.68 1.12-1.26 0-1.96-.784-2.016-2.17h5.362v-.49c0-2.618-1.638-3.696-3.458-3.696-2.086 0-3.64 1.512-3.64 3.78v.112c0 2.31 1.554 3.724 3.71 3.724zm-1.946-4.564c.168-1.134.854-1.82 1.876-1.82 1.05 0 1.694.56 1.778 1.82H82.23zm6.847 6.93h1.694v-3.654c.392.714 1.232 1.288 2.394 1.288 1.89 0 3.248-1.428 3.248-3.78v-.112c0-2.366-1.414-3.724-3.248-3.724-1.078 0-1.988.63-2.394 1.33v-1.176h-1.694v9.828zm3.668-3.71c-1.232 0-2.03-.77-2.03-2.408v-.112c0-1.624.84-2.422 2.016-2.422 1.106 0 1.946.798 1.946 2.422v.112c0 1.568-.686 2.408-1.932 2.408zm8.467.028c-1.288 0-2.03-.938-2.03-2.436v-.112c0-1.512.77-2.422 2.03-2.422s2.016.924 2.016 2.436v.098c0 1.498-.756 2.436-2.016 2.436zm-.014 1.316c2.156 0 3.766-1.484 3.766-3.766v-.112c0-2.24-1.61-3.738-3.752-3.738-2.156 0-3.766 1.512-3.766 3.78v.112c0 2.226 1.596 3.724 3.752 3.724zm7.803 0c1.876 0 2.926-.854 2.926-2.338 0-1.554-1.022-1.974-2.744-2.24-1.162-.196-1.512-.406-1.512-.938 0-.518.434-.868 1.162-.868.784 0 1.162.308 1.302.98h1.568c-.182-1.652-1.372-2.212-2.87-2.212-1.372 0-2.744.728-2.744 2.198 0 1.372.714 1.918 2.646 2.226 1.078.182 1.568.406 1.568 1.008 0 .616-.406.938-1.316.938-.994 0-1.372-.434-1.456-1.176h-1.596c.07 1.554 1.176 2.422 3.066 2.422zm4.454-.14h1.694v-7.322h-1.694V333zm.826-8.526c.56 0 1.008-.42 1.008-.966 0-.56-.448-.98-1.008-.98s-1.008.42-1.008.98c0 .546.448.966 1.008.966zm5.425 8.652c.518 0 .882-.084 1.148-.182V331.6c-.238.098-.49.14-.826.14-.532 0-.84-.294-.84-.938v-3.85h1.61v-1.274h-1.61v-1.61h-1.694v1.61h-.98v1.274h.98v4.004c0 1.386.756 2.17 2.212 2.17z" class="C"/><path d="M183.061 236.327l1.918-3.714c.043-.104.14-.164.253-.164h1.223a.28.28 0 0 1 .253.387l-2.661 5.64c-.259.688-.668 1.031-1.233 1.031s-.975-.332-1.245-1.009l-2.219-5.673c-.07-.18.059-.381.253-.381h1.245a.27.27 0 0 1 .253.174l1.443 3.693c.103.234.42.24.517.016h0zm-12.195-2.427c0 .158-.129.284-.28.284h-2.197c-.453 0-.835.18-1.137.54a1.9 1.9 0 0 0-.452 1.26v.043h3.016c.156 0 .28.131.28.284v1.211c0 .158-.129.283-.28.283h-2.736c-.156 0-.28.131-.28.284v1.151c0 .158-.13.284-.28.284h-1.202c-.156 0-.28-.131-.28-.284v-3.278a3.61 3.61 0 0 1 .97-2.509c.646-.709 1.438-1.064 2.386-1.064h2.192c.157 0 .28.131.28.284v1.227h0zm16.607-1.456h1.179a.28.28 0 0 1 .281.283v6.491a.28.28 0 0 1-.281.284h-1.179a.28.28 0 0 1-.28-.284v-6.491c0-.152.124-.283.28-.283zm5.381 0h2.607a.28.28 0 0 1 .28.283v1.2a.28.28 0 0 1-.28.284h-2.607c-.593 0-1.045.3-1.352.894h2.65a.28.28 0 0 1 .28.284v1.195a.28.28 0 0 1-.28.283h-2.65c.307.589.759.878 1.352.878h2.607a.28.28 0 0 1 .28.284v1.189a.28.28 0 0 1-.28.284h-2.607a3.06 3.06 0 0 1-2.354-1.047c-.641-.699-.959-1.522-.959-2.477 0-.949.318-1.778.959-2.482.636-.698 1.422-1.052 2.354-1.052zm9.943 5.345c.302 0 .555-.109.765-.322a1.05 1.05 0 0 0 .312-.763v-3.982c0-.153.124-.278.275-.278h1.147c.151 0 .275.125.275.278v3.982c0 .774-.269 1.434-.813 1.98s-1.196.818-1.961.818a2.65 2.65 0 0 1-1.745-.627c-.102-.082-.248-.082-.345 0a2.63 2.63 0 0 1-1.745.627c-.759 0-1.406-.273-1.95-.818s-.813-1.206-.813-1.98v-3.982c0-.153.124-.278.274-.278h1.148c.151 0 .275.125.275.278v3.982c0 .294.102.551.312.763a1.02 1.02 0 0 0 .754.322c.302 0 .555-.109.765-.322a1.05 1.05 0 0 0 .312-.763v-3.982c0-.153.124-.278.275-.278h1.147c.151 0 .275.125.275.278v3.982c0 .294.102.551.312.763a.99.99 0 0 0 .749.322h0z" fill="#41464a"/><path d="M171.324 239.066c-.161.19-.027.48.221.48h1.196c.081 0 .162-.039.215-.099l1.751-2.018-1.045-1.151-2.338 2.788h0zm5.668-2.139l-.889-1.025 2.639-3.011c.167-.191.032-.485-.215-.485h-1.39c-.086 0-.167.038-.221.103l-1.858 2.193-1.902-2.193c-.053-.065-.134-.103-.22-.103h-1.39c-.248 0-.383.3-.216.485l4.633 5.215 1.152 1.341c.054.06.135.099.216.099h1.196c.247 0 .382-.295.221-.48l-1.756-2.139z" class="E"/><defs ><path id="B" d="M186.714 374.13c1.93 2.73 5.65 1.8 7.36.12s2.44-4.1 3.09-6.41c1.48-5.29 3-10.83 1.82-16.19a8.94 8.94 0 0 0-2.09-4.39c-.549-.611-1.25-1.067-2.031-1.321s-1.615-.299-2.419-.129c-1.88.51-3 2.35-3.87 4.1a38.49 38.49 0 0 0-3.71 16.57c0 2.67.33 5.46 1.85 7.65z"/><path id="C" d="M96.047 217.965c5.83-23.608-8.583-47.471-32.191-53.301s-47.472 8.584-53.301 32.192 8.583 47.471 32.191 53.301 47.472-8.584 53.301-32.192z"/><path id="D" d="M97.324 207.423s0-.25-.06-.72-.07-1.18-.13-2.09c0-.46-.06-1-.09-1.54s-.18-1.17-.28-1.84l-.34-2.14c-.12-.76-.38-1.55-.57-2.4a42.16 42.16 0 0 0-4.9-11.7 43.81 43.81 0 0 0-11.15-12.45l-1.85-1.41-2.07-1.26s-1.37-.89-2.13-1.24l-2.28-1.09-1.16-.55-1.21-.44-2.47-.9c-.84-.28-1.71-.46-2.58-.69-.87-.255-1.755-.456-2.65-.6a40.12 40.12 0 0 0-5.54-.64c-.94 0-1.9-.13-2.86-.11l-2.89.15c-.49 0-1 0-1.47.09l-1.46.23-2.94.47a45.81 45.81 0 0 0-5.84 1.72 45.02 45.02 0 0 0-5.71 2.51l-2.73 1.63-1.35.85-1.29 1c-1.758 1.294-3.429 2.704-5 4.22l-2.22 2.45-.56.61-.51.67-1 1.34-1 1.35-.88 1.44-.88 1.45-.44.72-.37.77-1.51 3.06-1.19 3.24a43.32 43.32 0 0 0 0 27.62l1.19 3.25c.4 1.08 1 2.06 1.48 3.08l.38.77.44.73.88 1.45.88 1.44 1 1.35 1 1.34.5.66.56.62 2.23 2.45c1.571 1.516 3.242 2.926 5 4.22l1.28 1c.43.32.91.57 1.36.85l2.72 1.63a48.55 48.55 0 0 0 11.56 4.23l2.94.48 1.46.22c.49.06 1 .06 1.47.09l2.9.15 2.85-.11a40.12 40.12 0 0 0 5.54-.64c.895-.142 1.781-.343 2.65-.6l2.58-.69 2.47-.9 1.22-.44 1.15-.55 2.28-1.09c.76-.35 1.43-.84 2.14-1.24s1.39-.82 2.06-1.26l1.89-1.41c4.479-3.405 8.258-7.643 11.13-12.48a42.4 42.4 0 0 0 4.87-11.68c.233-.789.423-1.59.57-2.4l.34-2.14c.1-.66.22-1.28.28-1.84s.06-1.08.09-1.54l.13-2.09c.03-.49.06-.71.06-.71v.71c0 .47 0 1.19-.08 2.09 0 .47 0 1-.06 1.55s-.16 1.18-.26 1.85l-.31 2.15c-.143.816-.33 1.624-.56 2.42-.989 4.15-2.611 8.124-4.81 11.78-2.876 4.875-6.665 9.15-11.16 12.59l-1.91 1.43c-.67.44-1.38.85-2.07 1.28s-1.39.91-2.16 1.26l-2.29 1.11-1.17.55-1.22.45-2.49.92c-.84.28-1.73.46-2.6.7a22.16 22.16 0 0 1-2.68.62 42.68 42.68 0 0 1-5.59.66c-1 0-1.92.13-2.89.12l-2.93-.15c-.49 0-1 0-1.47-.09l-1.48-.23c-1-.16-2-.27-3-.47a47.43 47.43 0 0 1-5.91-1.73c-1.975-.719-3.9-1.571-5.76-2.55-.93-.5-1.83-1.09-2.76-1.64-.45-.29-.93-.53-1.37-.86l-1.3-1c-1.76-1.307-3.43-2.73-5-4.26l-2.25-2.48-.57-.62-.51-.67-1-1.36-1-1.36-.9-1.46-.89-1.47-.44-.73-.38-.78-1.51-3.12-1.26-3.19a43.79 43.79 0 0 1 0-27.95l1.2-3.28 1.51-3.13.38-.77.45-.74.89-1.46.89-1.46 1-1.36 1-1.36.51-.67.57-.62 2.26-2.53c1.57-1.53 3.24-2.953 5-4.26l1.31-1c.43-.32.91-.57 1.37-.86.92-.55 1.82-1.14 2.75-1.64 1.867-.973 3.798-1.819 5.78-2.53 1.929-.706 3.904-1.28 5.91-1.72 1-.21 2-.32 3-.48l1.47-.23c.5-.06 1-.06 1.48-.09l2.93-.14c1 0 1.93.08 2.89.11a42.68 42.68 0 0 1 5.59.66c.902.15 1.794.357 2.67.62.88.24 1.76.42 2.61.7l2.49.92 1.22.45 1.17.55 2.36 1.13c.77.35 1.44.85 2.15 1.26s1.41.84 2.08 1.28l1.9 1.43c4.505 3.436 8.301 7.711 11.18 12.59 2.206 3.654 3.832 7.628 4.82 11.78.19.86.47 1.64.56 2.42s.22 1.48.31 2.15.21 1.28.26 1.85 0 1.08.06 1.55c0 .91.06 1.6.08 2.09s-.03.74-.03.74z"/></defs></svg>