<svg xmlns="http://www.w3.org/2000/svg" viewBox="13.4 17.5 73.3 64.9" xmlns:v="https://vecta.io/nano"><path fill="#3fb771" d="M77.9 54.7h-.2.2c-1.8-.5-3-2-3-3.8 0-1.2.6-2.3 1.5-3.1H78c3.2 0 5.8-2.6 5.8-5.8s-2.6-5.8-5.8-5.8h-3.8c-1.2-.7-2-2-2-3.5 0-1.4.8-2.7 1.9-3.4h2c2.2 0 4-1.8 4-4s-1.8-4-4-4H28.7c-2.2 0-4 1.8-4 4s1.8 4 4 4h2.2c1.1.7 1.9 2 1.9 3.4 0 1.5-.8 2.8-2 3.5h-8.1c-3.2 0-5.8 2.6-5.8 5.8s2.6 5.8 5.8 5.8h11c.9.7 1.4 1.8 1.4 3.1 0 1.9-1.3 3.4-3 3.9h-9.5c-3.2 0-5.8 2.6-5.8 5.8s2.6 5.8 5.8 5.8H36c.5.5.8 1.2.8 1.9s-.3 1.4-.8 1.9h-5.5c-2.7 0-4.8 2.2-4.8 4.8 0 2.7 2.2 4.8 4.8 4.8h45.7c2.7 0 4.8-2.2 4.8-4.8 0-2.7-2.2-4.8-4.8-4.8h-5.8c-.5-.5-.8-1.1-.8-1.9s.3-1.4.8-1.9h7.5c3.2 0 5.8-2.6 5.8-5.8-.1-3.3-2.6-5.9-5.8-5.9z" opacity=".1"/><g stroke="#41464a"><path fill="#fff" stroke-miterlimit="10" stroke-width=".8" d="M66.8 70.7H38c-1.1 0-1.9-.9-1.9-1.9V32.1c0-1.1.9-1.9 1.9-1.9h28.8c1.1 0 1.9.9 1.9 1.9v36.7c0 1-.9 1.9-1.9 1.9z"/><g stroke-width=".4"><circle cx="52.4" cy="38.9" r="5.9" fill="#e0e0e2"/><g fill="#3fb771"><circle cx="52.4" cy="39.1" r="1.9"/><path d="M52.4 44.8c1.3 0 2.6-.5 3.6-1.2-.6-1.5-2-2.6-3.6-2.6s-3.1 1.1-3.6 2.6c1 .7 2.2 1.2 3.6 1.2z" stroke-miterlimit="10"/></g></g><path d="M40.9 50.5h23m-23 3.1h23m-23 3h18.7m-18.7 3h23m-23 3h23m-23 3h11.5" stroke-miterlimit="10" stroke-width=".8" fill="none"/></g></svg>