<svg xmlns="http://www.w3.org/2000/svg" viewBox="13.4 17.5 73.3 64.9" xmlns:v="https://vecta.io/nano"><path fill="#3fb771" d="M77.4 54.5h-.2.2c-1.8-.5-3-2-3-3.8 0-1.2.6-2.3 1.5-3.1h1.6c3.2 0 5.8-2.6 5.8-5.8S80.7 36 77.5 36h-3.8c-1.2-.7-2-2-2-3.5 0-1.4.8-2.7 1.9-3.4h2c2.2 0 4-1.8 4-4s-1.8-4-4-4H28.1c-2.2 0-4 1.8-4 4s1.8 4 4 4h2.2c1.1.7 1.9 2 1.9 3.4 0 1.5-.8 2.8-2 3.5h-8.1c-3.2 0-5.8 2.6-5.8 5.8s2.6 5.8 5.8 5.8h11c.9.7 1.4 1.8 1.4 3.1 0 1.9-1.3 3.4-3 3.9H22c-3.2 0-5.8 2.6-5.8 5.8s2.6 5.8 5.8 5.8h13.4c.5.5.8 1.2.8 1.9s-.3 1.4-.8 1.9H30c-2.7 0-4.8 2.2-4.8 4.8 0 2.7 2.2 4.8 4.8 4.8h45.7c2.7 0 4.8-2.2 4.8-4.8 0-2.7-2.2-4.8-4.8-4.8h-5.8c-.5-.5-.8-1.1-.8-1.9s.3-1.4.8-1.9h7.5c3.2 0 5.8-2.6 5.8-5.8-.1-3.3-2.6-5.9-5.8-5.9z" opacity=".1"/><g stroke="#41464a"><g stroke-width=".8"><path fill="#fff" stroke-miterlimit="10" d="M64.5 70.9H35c-1 0-1.8-.8-1.8-1.8V31.6c0-1 .8-1.8 1.8-1.8h29.5c1 0 1.8.8 1.8 1.8v37.5c0 1-.8 1.8-1.8 1.8z"/><g fill="#e0e0e2"><circle cx="47.8" cy="60.1" r="4.1"/><path d="M51.8 61.5l3.5 2c.5.3.7.6.4 1.2l-.2.3c-.3.6-.8.5-1.2.2l-3.5-2 1-1.7z" stroke-miterlimit="10"/></g></g><g stroke-width=".4"><circle cx="49.8" cy="40.2" r="5.9" fill="#e0e0e2"/><g fill="#3fb771"><circle cx="49.8" cy="40.4" r="1.9"/><path d="M49.8 46.1c1.3 0 2.6-.5 3.6-1.2-.5-1.5-1.9-2.6-3.6-2.6s-3.1 1.1-3.6 2.6c1 .7 2.2 1.2 3.6 1.2z" stroke-miterlimit="10"/></g></g></g></svg>