<svg xmlns="http://www.w3.org/2000/svg" viewBox="13.4 17.5 73.3 64.9" xmlns:v="https://vecta.io/nano"><style><![CDATA[.E{stroke:#41464a}.F{stroke-miterlimit:10}.G{fill:#3fb771}.H{stroke-width:.8}]]></style><path d="M78.5 54.2h-.2.2c-1.8-.5-3-2-3-3.8 0-1.2.6-2.3 1.5-3.1h1.6c3.2 0 5.8-2.6 5.8-5.8s-2.6-5.8-5.8-5.8h-3.8c-1.2-.7-2-2-2-3.5 0-1.4.8-2.7 1.9-3.4h2c2.2 0 4-1.8 4-4s-1.8-4-4-4H29.2c-2.2 0-4 1.8-4 4s1.8 4 4 4h2.2c1.1.7 1.9 2 1.9 3.4 0 1.5-.8 2.8-2 3.5h-8.1c-3.2 0-5.8 2.6-5.8 5.8s2.6 5.8 5.8 5.8h11c.9.7 1.4 1.8 1.4 3.1 0 1.9-1.3 3.4-3 3.9h-9.5c-3.2 0-5.8 2.6-5.8 5.8s2.6 5.8 5.8 5.8h13.4c.5.5.8 1.2.8 1.9s-.3 1.4-.8 1.9H31c-2.7 0-4.8 2.2-4.8 4.8 0 2.7 2.2 4.8 4.8 4.8h45.7c2.7 0 4.8-2.2 4.8-4.8 0-2.7-2.2-4.8-4.8-4.8h-5.8c-.5-.5-.8-1.1-.8-1.9s.3-1.4.8-1.9h7.5c3.2 0 5.8-2.6 5.8-5.8 0-3.4-2.6-5.9-5.7-5.9z" opacity=".1" class="G"/><path d="M46.8 61.9v4.2c0 .4.3.6.6.6h6.7c.4 0 .6-.3.6-.6v-4.2m14.9-.2H32.1a3.12 3.12 0 0 1-3.1-3.1V32.8a3.12 3.12 0 0 1 3.1-3.1h37.5a3.12 3.12 0 0 1 3.1 3.1v25.8a3.12 3.12 0 0 1-3.1 3.1z" fill="#fff" class="E F H"/><path fill="none" d="M73 56.4H29.2" class="E F H"/><g stroke-width=".4" class="E"><circle cx="40.8" cy="43.6" r="5.6" fill="#e0e0e2"/><g class="G"><circle cx="40.8" cy="43.8" r="1.9"/><path d="M40.8 49.3c1.3 0 2.5-.4 3.4-1.2-.5-1.4-1.8-2.4-3.4-2.4s-2.9 1-3.4 2.4c.9.7 2.1 1.2 3.4 1.2z" class="F"/></g><g fill="#e0e0e2"><path d="M66.3 47.1h-15c-.3 0-.5-.2-.5-.5v-6c0-.3.2-.5.5-.5h15c.3 0 .5.2.5.5v6c0 .3-.2.5-.5.5z" class="F"/><circle cx="58.8" cy="43.6" r="1.7"/></g><circle cx="66.2" cy="46.6" r="2.3" class="G"/><g fill="none" class="F"><path d="M66.2 45.7v1.9"/><path d="M65.2 46.7h2"/></g></g><path d="M64.9 70.4H36.8c-.5 0-1-.4-1-1v-1.6c0-.6.5-1 1-1h28.1c.5 0 1 .4 1 1v1.6c0 .5-.5 1-1 1z" fill="#fff" class="E F H"/></svg>