<svg xmlns="http://www.w3.org/2000/svg" viewBox="13.4 17.5 73.3 64.9" xmlns:v="https://vecta.io/nano"><style><![CDATA[.E{stroke:#41464a}.F{stroke-miterlimit:10}.G{stroke-width:.8}]]></style><path fill="#3fb771" d="M77.2 54.2H77h.2c-1.8-.5-3-2-3-3.8 0-1.2.6-2.3 1.5-3.1h1.6c3.2 0 5.8-2.6 5.8-5.8s-2.6-5.8-5.8-5.8h-3.8c-1.2-.7-2-2-2-3.5 0-1.4.8-2.7 1.9-3.4h2c2.2 0 4-1.8 4-4s-1.8-4-4-4H28c-2.2 0-4 1.8-4 4s1.8 4 4 4h2.2c1.1.7 1.9 2 1.9 3.4 0 1.5-.8 2.8-2 3.5H22c-3.2 0-5.8 2.6-5.8 5.8s2.6 5.8 5.8 5.8h11c.9.7 1.4 1.8 1.4 3.1 0 1.9-1.3 3.4-3 3.9H22c-3.2 0-5.8 2.6-5.8 5.8s2.6 5.8 5.8 5.8h13.4c.5.5.8 1.2.8 1.9s-.3 1.4-.8 1.9h-5.5c-2.7 0-4.8 2.2-4.8 4.8 0 2.7 2.2 4.8 4.8 4.8h45.7c2.7 0 4.8-2.2 4.8-4.8 0-2.7-2.2-4.8-4.8-4.8h-5.8c-.5-.5-.8-1.1-.8-1.9s.3-1.4.8-1.9h7.5c3.2 0 5.8-2.6 5.8-5.8-.1-3.4-2.7-5.9-5.9-5.9z" opacity=".1"/><path d="M45.7 61.6v4.1a.65.65 0 0 0 .6.6h6.5a.65.65 0 0 0 .6-.6v-4.1m14.6-.2H31.2a3.12 3.12 0 0 1-3.1-3.1V33.1a3.12 3.12 0 0 1 3.1-3.1H68a3.12 3.12 0 0 1 3.1 3.1v25.2c-.1 1.7-1.4 3.1-3.1 3.1z" fill="#fff" class="E F G"/><g fill="none" class="E F G"><path d="M71.3 56.2H28.4M51 39.7h14.3"/><path d="M51 43.7h14.3M51 47.8h14.3"/></g><g stroke-width=".4" class="E"><circle cx="39.7" cy="43.7" r="5.5" fill="#e0e0e2"/><g fill="#3fb771"><circle cx="39.7" cy="43.9" r="1.8"/><path d="M39.7 49.2c1.3 0 2.4-.4 3.3-1.1-.5-1.4-1.8-2.4-3.3-2.4s-2.9 1-3.3 2.4c.9.7 2.1 1.1 3.3 1.1z" class="F"/></g></g><path d="M53.5 38.2V41m4.6 1.3v2.8m5.2.6v2.7" fill="none" stroke="#3eb66f" stroke-width="1.5" class="F"/><path d="M63.9 70H35.8c-.5 0-1-.5-1-1v-1.6c0-.5.5-1 1-1h28.1c.5 0 1 .5 1 1V69c0 .5-.5 1-1 1z" fill="#fff" class="E F G"/></svg>