<svg xmlns="http://www.w3.org/2000/svg" viewBox="-281 377.9 47.5 38.1" xmlns:v="https://vecta.io/nano"><path d="M-280.2 378.9v36h45.9v-36h-45.9zm2 2h21.7l-3 5.5c-1.9 4.2-3.2 8.7-3.7 13.3l-.1 1.1h8.2c-.4 1.4-.8 3.1-.9 5h-1.2c-4.4-.1-8.6-1.1-12.6-2.9l-.8 1.8c4.2 1.9 8.7 2.9 13.3 3.1h1.1.1 0c0 1 .1 2.1.2 3.2l.3 1.8h-22.7v-31.9h.1zm24.1 0h17.8v32h-17.2c-.2-.7-.3-1.4-.4-2.1-.1-1-.2-2-.2-3h0c4.2-.3 8.4-1.2 12.3-2.9l-.8-1.8c-3.6 1.6-7.5 2.5-11.4 2.8a22.52 22.52 0 0 1 1.2-5.6l.5-1.3h-8.7c.6-4 1.7-7.9 3.4-11.6 1-2.3 2.2-4.5 3.5-6.5zm5.8 5v5h2v-5h-2zm-20 .1v4.9h2V386h-2z" fill="#fff"/></svg>