<svg xmlns="http://www.w3.org/2000/svg" viewBox="-20 144.8 553 553" fill="#fff" xmlns:v="https://vecta.io/nano"><path d="M56.8 324c-9.5 0-17.6 3.3-24.3 10s-10 14.6-10 23.9v142.9c0 9.5 3.3 17.6 10 24.3 6.6 6.6 14.7 10 24.3 10 9.5 0 17.6-3.3 24.1-10 6.5-6.6 9.8-14.7 9.8-24.3V357.9c0-9.3-3.3-17.3-10-23.9s-14.6-10-23.9-10zM332 195.7l23.6-43.5c1.5-2.9 1-5.1-1.7-6.6-2.9-1.3-5.1-.7-6.6 2l-23.9 43.9c-21.1-9.3-43.3-14-66.8-14s-45.8 4.7-66.8 14l-23.9-43.9c-1.6-2.7-3.8-3.3-6.6-2-2.7 1.6-3.2 3.8-1.7 6.6l23.6 43.5c-23.9 12.2-43 29.2-57.2 51s-21.3 45.7-21.3 71.6h307.4c0-25.9-7.1-49.8-21.3-71.6s-33.1-38.8-56.8-51zM195.5 259c-2.6 2.6-5.6 3.8-9.1 3.8-3.6 0-6.5-1.3-9-3.8-2.4-2.5-3.7-5.6-3.7-9.1s1.2-6.6 3.7-9.1c2.4-2.5 5.4-3.8 9-3.8s6.6 1.3 9.1 3.8c2.5 2.6 3.8 5.6 3.8 9.1.1 3.5-1.2 6.6-3.8 9.1zm140.1 0c-2.4 2.6-5.4 3.8-9 3.8s-6.6-1.3-9.1-3.8c-2.6-2.5-3.8-5.6-3.8-9.1s1.3-6.6 3.8-9.1 5.6-3.8 9.1-3.8 6.5 1.3 9 3.8c2.4 2.6 3.7 5.6 3.7 9.1s-1.2 6.6-3.7 9.1zM104 551.6c0 10.2 3.5 18.8 10.6 25.9s15.7 10.6 25.9 10.6h24.6l.3 75.5c0 9.5 3.3 17.6 10 24.3s14.6 10 23.9 10c9.5 0 17.6-3.3 24.3-10s10-14.7 10-24.3v-75.4h45.9v75.4c0 9.5 3.3 17.6 10 24.3s14.7 10 24.3 10c9.5 0 17.6-3.3 24.3-10s10-14.7 10-24.3v-75.4H373c10 0 18.5-3.5 25.6-10.6s10.6-15.7 10.6-25.9V330.3H104v221.3zM456.3 324c-9.3 0-17.3 3.3-23.9 9.8s-10 14.6-10 24.1v142.9c0 9.5 3.3 17.6 10 24.3 6.6 6.6 14.6 10 23.9 10 9.5 0 17.6-3.3 24.3-10 6.6-6.6 10-14.7 10-24.3V357.9c0-9.5-3.3-17.6-10-24.1s-14.8-9.8-24.3-9.8z"/></svg>