<svg xmlns="http://www.w3.org/2000/svg" viewBox="-272 395.9 50 50" xmlns:v="https://vecta.io/nano"><path d="M-247 397.9c-10.6 0-19.6 7.2-22.2 17h2.1c.7-2.5 2-4.8 3.5-6.8 1.7 1 3.7 1.8 5.9 2.4-.4 1.4-.7 2.9-.9 4.4h2c.2-1.4.5-2.7.8-3.9 2.4.5 5 .8 7.8.9v3h2v-3c2.7-.1 5.3-.4 7.8-.9.3 1.2.6 2.6.8 3.9h2a28.51 28.51 0 0 0-.9-4.4c2.2-.6 4.2-1.4 5.9-2.4a19.14 19.14 0 0 1 3.5 6.8h2.1c-2.6-9.8-11.6-17-22.2-17zm-1 2.1v9.8c-2.5-.1-5-.4-7.2-.8 1.7-4.9 4.3-8.3 7.2-9zm2 0c2.9.6 5.5 4.1 7.2 9a32.39 32.39 0 0 1-7.2.8V400zm-6.9.7c-1.8 1.9-3.2 4.5-4.3 7.8a23.57 23.57 0 0 1-5.1-2c2.6-2.7 5.8-4.7 9.4-5.8zm11.8 0c3.6 1.1 6.9 3.1 9.4 5.8a23.57 23.57 0 0 1-5.1 2c-1.1-3.2-2.6-5.9-4.3-7.8zm-27.9 16.2l2.5 8h2.3l2.1-6 2.1 6h2.3l2.6-8h-2.2l-1.6 5.6-1.9-5.6h-2.6l-1.9 5.5-1.6-5.5h-2.1zm15 0l2.5 8h2.3l2.1-6 2.1 6h2.3l2.6-8h-2.2l-1.6 5.6-1.9-5.6h-2.6l-1.9 5.5-1.6-5.5h-2.1zm15 0l2.6 8h2.3l2.1-6 2.1 6h2.3l2.6-8h-2.2l-1.6 5.6-1.9-5.6h-2.6l-2 5.5-1.6-5.5h-2.1zm-30.2 10c2.6 9.8 11.6 17 22.2 17s19.6-7.2 22.2-17h-2.1c-.7 2.5-2 4.8-3.5 6.8-1.7-1-3.7-1.8-5.9-2.4.4-1.4.7-2.9.9-4.4h-2c-.2 1.4-.5 2.7-.8 3.9-2.4-.5-5-.8-7.8-.9v-3h-2v3c-2.7.1-5.3.4-7.8.9-.3-1.2-.6-2.6-.8-3.9h-2a28.51 28.51 0 0 0 .9 4.4c-2.2.6-4.2 1.4-5.9 2.4a19.14 19.14 0 0 1-3.5-6.8h-2.1zm21.2 5v9.8c-2.9-.6-5.5-4.1-7.2-9 2.2-.4 4.7-.7 7.2-.8zm2 0c2.5.1 5 .4 7.2.8-1.6 4.9-4.2 8.4-7.2 9v-9.8zm-11.2 1.3c1.1 3.2 2.5 5.9 4.3 7.8-3.6-1.1-6.9-3.1-9.4-5.8 1.5-.7 3.2-1.4 5.1-2zm20.4 0a23.57 23.57 0 0 1 5.1 2c-2.5 2.7-5.8 4.7-9.4 5.8 1.7-1.8 3.2-4.5 4.3-7.8z" fill="#fff"/></svg>