<svg xmlns="http://www.w3.org/2000/svg" viewBox="194 -104 1000 1000" fill="#25c16f" xmlns:v="https://vecta.io/nano"><path d="M1056 669.3c-22.9 0-46.3-6.4-67.7-18.6-26.6-15.2-47.1-37.5-57.8-62.9-11.1-26.5-10.4-53.3 2.2-75.3 14.7-25.9 44.4-41.3 79.4-41.3 22.9 0 46.3 6.4 67.7 18.6 55.9 31.8 80.9 93.8 55.7 138.1-14.9 26-44.6 41.4-79.5 41.4zm-44-174c-26.6 0-47.9 10.7-58.5 29.2-8.8 15.3-9 34.6-.9 54.1 8.7 20.6 25.5 38.7 47.5 51.3 17.8 10.1 37.1 15.4 55.9 15.4 26.6 0 47.9-10.7 58.5-29.2 18.7-32.9-2.3-80.1-46.7-105.3-17.8-10.2-37.1-15.5-55.8-15.5z"/><path d="M1115 519.5l-23.6-5.1c8.9-42.2 13.2-104.1-18.1-160.1-24.3-43.8-66.6-79.5-125.7-106.3l9.9-21.9c63.9 29 109.9 68.1 136.8 116.5 27.8 49.7 34.8 110.8 20.7 176.9zM844.6 209.3h3.4v3.4c.9 1 1.8 1.9 2.7 2.9 8.1 1.5 16 3.5 23.6 6.3l8.6-22.5c-15.8-6-32.1-8.5-47.8-10.8l-3.8-.5c-5.1-.8-10.3-1.8-15.6-2.8l-3.2-.6c11.6 7 22.4 15.2 32.1 24.6zm137.8 179.8a13.06 13.06 0 0 1-4.7-.9c-16.3-6.9-39.1-15.3-55.3-20.5l7.3-22.9c7.5 2.4 16.1 5.4 24.8 8.6-6.6-8.6-15.2-17.1-25.4-22.2l10.9-21.4c35.1 17.9 52.7 61.1 53.4 62.9 1.8 4.5.7 9.7-2.7 13-2.1 2.2-5.2 3.4-8.3 3.4zM581.6 554.8c.5.5 1 1.2 1.2 1.4 1.4 1.9 2.7 3.8 4.1 5.8l9.8 13.6c41.2 55.5 80.4 95 123.4 123.9 45.6 30.8 94.9 46.9 141.4 46.9 9.7 0 19.2-.7 28.6-2.1 55.1-8.3 107.1-37.4 142.5-79.6l-18.4-15.4c-31.8 37.9-78.3 63.9-127.7 71.3-48.7 7.3-103-7.2-153.1-41-40.7-27.4-72.7-57.9-112.1-111.1-1.3-1.7-7.7-1.3-8.9-3.1-6.1-2.1-12.5-4-18.4-6.5l-16.3-9.8m274.8 68.6c-19.5-11.1-41.8-24-59.9-37.3l-14.2 19.4c9.4 6.9 19.8 13.6 30.2 20-15.6-2.5-32.5-9.7-51.7-21.8-13.1-8.3-15.1-9.2-26.7-19.5-10.9 1.2-22.3 2.4-33.2 3 17.3 16.5 26.1 23.6 47.2 36.8 22.2 14 56.2 31.9 94.1 25.1.5-.1 1.2-.3 1.7-.5l10.6-3.5c4.5-1.5 7.7-5.5 8.1-10.2.3-4.6-2.1-9.1-6.2-11.5zm-518 27.6c-.1 0-.1 0 0 0-38.5 0-70-17.3-84.2-46.4-22.5-45.9 6.3-106.1 64.1-134.4 19.6-9.6 40.7-14.6 61.2-14.6 38.5 0 70 17.3 84.2 46.4 11.1 22.7 10.3 49.5-2.5 75.2-12.2 24.7-34.1 45.8-61.6 59.2-19.6 9.5-40.8 14.6-61.2 14.6zm41-171.4c-16.9 0-34.3 4.2-50.6 12.2-45.9 22.4-69.7 68.3-53.1 102.2 10.1 20.7 33.5 32.9 62.6 32.9 16.8 0 34.3-4.2 50.6-12.2 22.7-11.1 40.7-28.3 50.5-48.3 9.4-19 10.2-38.1 2.4-54-9.9-20.6-33.3-32.8-62.4-32.8z"/><path d="M530.5 727c-2.7 0-5.4-.1-8.1-.2-57-2.3-114.7-27.9-158.2-70.2-4.5-4.3-8.9-9-13.2-13.8l18-16.1c3.9 4.3 7.9 8.6 12.1 12.6 39.4 38.3 91.3 61.5 142.4 63.5 47.3 1.9 99.1-14.9 153.8-49.8l12.9 20.3c-56 35.6-109.7 53.7-159.7 53.7zm293.2-184.8c0-.3-1.9 7.7-2 7.5 0-.2 2-13.4 2-13.5l-22.2 14.4c-2.8 1.9-12.2 7.9-15.3 9.1.2.2-3.6 5.3.7-.8-15.3 17.4-26.5 28.3-42.8 43l16.2 17.9c18.8-17 37.2-35.9 54.8-56.4.5-.5.9-.8 1.3-1.4l2.9-3.5c1.9-2.3 6.4-15.8 6.2-18.6 5.1-12.7 1.5-2.1 1.5-2.1l-3.3 4.4zM568.3 625c-6.2 0-12.5-.5-18.8-1.6-4.9-.9-8.8-4.7-9.7-9.6s1.2-9.8 5.4-12.5c21.2-13.4 36.7-24.4 50.1-35.9l15.6 18.2c-5.5 4.8-11.4 9.4-17.7 14.2 12-2.8 23.3-7.1 33.1-11.4l9.4 22.1c-18.6 8.1-42.1 16.5-67.4 16.5zM437.7 334.5c8-11.4 18.7-21.1 31.3-28.3 9.2-5.2 14.7-10 24.7-13.6 2.2-9 8.5-17.7 10.3-26.8-16.3 4.8-32.2 11-47 19.6-27.8 15.9-48.1 41.9-55.9 71.3-.4 1.1-.5 2.3-.5 3.4 0 6 4.5 11.2 10.5 11.9.5.1 1 .1 1.5.1 2.3 0 4.7-.7 6.6-2 18.1-8.9 36.9-18.1 55.9-25.3l-8.5-22.5c-9.8 3.7-19.4 7.9-28.9 12.2zm145.8-153.1c-8.2.5-13.9 3.4-22 4.1-63.3 5.1-112.8 16.9-155.9 37.4-38.9 18.5-91.1 53.3-118.1 113.9-21.4 48-25 103.7-10 156.7l23.1-6.6c-13.3-46.8-10-98 8.8-140.4 24-53.9 71.1-85.2 106.4-102 38.2-18.1 75.6-32.2 131.4-37.4 9-11.1 23.7-19.8 36.3-25.7z"/><path d="M846.1 518.6c-7 6.5-14.5 12.4-22.5 17.5v1.2c1.1.3 2.2.5 3.2.5 4.1 0 8-2 10.5-5.6l9.5-14.2c-.2.1-.4.4-.7.6zm-139-389.3h-1.5c-25.3-.5-48.7-13.5-65.7-36.6-16.3-22.2-25-51.3-24.5-81.9.6-30.2 10.3-58.8 27.3-80.2 18-22.7 42.1-35.1 67.6-34.6 51 1 91.4 54.2 90.2 118.5-.6 30.2-10.3 58.8-27.3 80.2-17.6 22.3-41.1 34.6-66.1 34.6zM708.8-80c-37.2 0-68.3 40.9-69.3 91.3-.5 25.3 6.5 49.1 19.8 67.1 12.5 17 29.2 26.5 46.8 26.9h1c37.2 0 68.3-40.9 69.3-91.3 1-51.1-28.9-93.2-66.6-94h-1z"/><path d="M442.4 213.9c-1-46.6 7.5-113.5 53.5-168 7.4-8.8 16.2-17.3 27.4-27 1.4-1.2 2.6-2.3 4-3.4 7.9-6.9 16.2-14 25.5-19.8 18.1-11.3 38.4-18.4 58-25.3l13.3-4.7 8.2 22.6-13.5 4.8C600.4-.5 581.4 6.2 565.6 16c-7.7 4.9-15.3 11.4-22.5 17.6l-4.1 3.5c-10.3 8.8-18.1 16.5-24.7 24.3-41.2 48.7-48.7 109.5-47.8 151.9l-24.1.6zm38.4 133.3c.4-2.6 2.1-9.2 2.6-11.8-4-13-2.8-24.7-5.8-37.5l-23.5 5.4c7 30.5 15 61.2 27.9 93.2-1.2-17.3-3.7-32.1-1.2-49.3zm76.5-175.6l2.7 19.2 16.5-3.8c2-1.3 4.5-3.4 6.6-4.5l-6.1-42.3c-.5-3.6-2.7-6.9-5.9-8.7a12.09 12.09 0 0 0-10.5-.7c-17.5 7-31.5 42.3-35.2 59.8l23.6 5c1.7-8.3 4.9-16.8 8.3-24zm302.4 1.4c6.7 14 8.8 34.9 6.5 61.7 4.2 6.2 8 12.7 11.4 19.5h1.4v3.1c2.3 5 4.3 10.1 6 15.4 14.1-74.4 4.1-120.9-30.1-138.3-3.7-1.9-8.1-1.7-11.6.4-3.5 2.2-5.8 6-5.9 10.1-.4 15.9-2.1 32.6-5.1 46.8l23.6 4.9c1.6-7.3 2.9-15.4 3.8-23.6zm78.1-85.4C906 20.4 855-6.5 850.8-8.6c-17.1-9.2-37.5-19-59.6-23L787-7.9c18.9 3.3 37.1 12.3 52.5 20.6.1.1.3.1.4.2.5.3 48.2 24.7 76.8 86.5 32 69.1 29.3 155.7-9.6 258.8.4 7.7-.9 18.3-1.4 25.7-1.1 16.6-3.7 33.4-8.4 49.4-.5 1.4-.8 2.8-1.3 4.2 2.3-1.2 4.3-3.1 5.5-5.5 36.6-75.4 56.9-145.2 60.4-207.6 2.9-50.9-5.2-96.8-24.1-136.8z"/><path d="M693.9 598.1c-61.9 0-120-24.1-163.8-67.9s-67.9-102-67.9-163.8 24.1-120 67.9-163.8 102-67.9 163.8-67.9 120 24.1 163.8 67.9 67.9 102 67.9 163.8-24.1 120-67.9 163.8C814 574 755.8 598.1 693.9 598.1zm0-443.6c-56.6 0-109.8 22-149.8 62s-62 93.2-62 149.8 22 109.8 62 149.8 93.2 62 149.8 62 109.8-22 149.8-62 62-93.2 62-149.8-22-109.8-62-149.8c-40-39.9-93.2-62-149.8-62zm92.8 241.2v29.2h-33.6v55.6h-35.5v-55.6H607v-14.5l70.2-171.8h39.6l-68 157.2h68.7l6-76.2H753v76.2l33.7-.1z"/></svg>