<svg xmlns="http://www.w3.org/2000/svg" viewBox="194 -104 1000 1000" fill="#3fb76f" xmlns:v="https://vecta.io/nano"><path d="M1054.9 667c-22.9 0-46.2-6.4-67.5-18.5-26.5-15.1-47-37.3-57.6-62.7-11.1-26.5-10.3-53.1 2.2-75.1 14.7-25.8 44.3-41.2 79.2-41.2 22.9 0 46.2 6.4 67.5 18.5 55.7 31.7 80.6 93.5 55.5 137.7-14.8 25.9-44.4 41.3-79.3 41.3zm-43.8-173.5c-26.5 0-47.8 10.6-58.3 29.2-8.7 15.3-9 34.5-.9 53.9 8.6 20.5 25.5 38.6 47.3 51.1 17.7 10.1 37 15.4 55.7 15.4 26.5 0 47.8-10.6 58.3-29.2 18.6-32.8-2.2-79.8-46.5-105-17.7-10.1-37-15.4-55.6-15.4z"/><path d="M1113.8 517.7l-23.5-5c8.9-42 13.1-103.8-18-159.7-24.2-43.6-66.4-79.3-125.4-106l9.9-21.9c63.7 28.9 109.6 67.9 136.4 116.2 27.6 49.5 34.6 110.4 20.6 176.4zm-316.9-335c10.7 8.4 20.6 17.9 29.8 28.2.2 0 .4.1.5.1l3.8.5c15.1 2.2 29.4 4.4 42.7 9.5l8.5-22.4c-15.7-5.9-32-8.5-47.7-10.8l-3.8-.5c-5.1-.8-10.3-1.8-15.6-2.8-6.7-1.3-13.5-2.6-20.5-3.5.9.5 1.6 1.1 2.3 1.7zm184.7 205c-1.5 0-3.1-.3-4.7-.9-16.3-6.8-39-15.2-55.2-20.4l7.3-22.9c7.5 2.4 16 5.4 24.7 8.5-6.6-8.5-15.1-17-25.3-22.1l10.9-21.3c35 17.8 52.6 60.9 53.3 62.7 1.8 4.5.7 9.6-2.7 13-2.2 2.2-5.3 3.4-8.3 3.4zM852 615.6c-19.4-11.1-41.7-23.9-59.8-37.2l-14.1 19.3c9.4 6.8 19.7 13.6 30.1 20-15.6-2.5-32.4-9.7-51.6-21.8-8.1-5-15.8-10.7-23.3-16.6-2.1.4-4.1.7-6.4 1-9.1 1-18.2 1.5-27.4 1.7 13.7 12.3 28.3 24.2 44.3 34.3 22.1 13.9 56.1 31.8 93.8 25 .5-.1 1.2-.3 1.7-.4l10.5-3.5c4.5-1.5 7.6-5.5 8.1-10.2.6-4.7-1.8-9.2-5.9-11.6zm161.5 31.4c-31.7 37.8-78.1 63.7-127.3 71.1-48.5 7.3-102.7-7.2-152.6-40.9-37.4-25.3-72.1-59.2-108.2-106.1-10-2.9-20-6-29.5-9.9-3.8-1.5-7.6-3.1-11.2-4.9.9 1.2 1.7 2.4 2.6 3.6 3.1 4.5 6.5 9.1 9.8 13.6 41 55.3 80.2 94.7 123 123.6 45.4 30.7 94.6 46.8 141 46.8 9.6 0 19.2-.7 28.5-2.1 54.9-8.3 106.7-37.3 142.1-79.4l-18.2-15.4zm-677.9-3.9c-.1 0-.1 0 0 0-38.4 0-69.8-17.3-84-46.3-22.4-45.7 6.3-105.8 63.9-134 19.5-9.5 40.6-14.6 61-14.6 38.4 0 69.8 17.3 84 46.3 11.1 22.7 10.3 49.3-2.5 75-12.1 24.7-34 45.6-61.4 59-19.5 9.5-40.7 14.6-61 14.6zm40.8-170.9c-16.8 0-34.2 4.2-50.5 12.1-45.7 22.4-69.5 68.1-52.9 102 10.1 20.6 33.4 32.8 62.5 32.8 16.7 0 34.2-4.2 50.5-12.1 22.7-11.1 40.6-28.2 50.4-48.1 9.4-18.9 10.2-38 2.4-53.8-10-20.7-33.4-32.9-62.4-32.9z"/><path d="M531 724.5c-2.7 0-5.4-.1-8.1-.2-56.9-2.2-114.4-27.8-157.8-70-4.5-4.3-8.9-9-13.1-13.8l17.9-16c3.9 4.3 7.9 8.5 12.1 12.6 39.2 38.2 91 61.3 142 63.3 47.2 1.9 98.8-14.8 153.4-49.7l12.9 20.2c-55.9 35.6-109.5 53.6-159.3 53.6zm290.4-176c0-.3 0-.5-.1-.8-.3-2.9-1.6-5.6-3.9-7.6-.2-.1-.3-.3-.5-.4-.5-.4-1.2-.8-1.7-1.2-.3-.2-.5-.4-.8-.5-1.8.9-3.5 1.7-5.3 2.5-7.2 3.1-14.4 6.2-22 8.3 1.3 1 2.7 1.9 4 2.9-15.3 17.4-31.1 33.6-47.3 48.1l16.1 17.8c18.7-16.9 37.1-35.8 54.6-56.2.4-.4.9-.8 1.3-1.3l2.9-3.5c1.9-2.5 2.8-5.3 2.7-8.1zm-252.7 74.3c-6.2 0-12.4-.5-18.7-1.6-4.9-.9-8.7-4.7-9.6-9.5-.9-4.9 1.2-9.8 5.4-12.4 21.1-13.3 36.6-24.3 49.9-35.8l15.6 18.2c-5.5 4.8-11.3 9.4-17.6 14.1 12-2.8 23.2-7.1 33-11.3l9.4 22c-18.7 8-42.2 16.3-67.4 16.3zM438.5 333.2c8-11.3 18.6-21.1 31.2-28.3 7.4-4.2 15-7.8 22.9-10.9 4.3-10.8 9.7-21.1 16.4-30.6-17.8 4.9-35.1 11.4-51.1 20.7-27.7 15.8-48 41.8-55.7 71.1-.4 1.1-.4 2.2-.4 3.4 0 6 4.5 11.2 10.4 11.9.5.1 1 .1 1.5.1 2.3 0 4.7-.7 6.6-2 18.1-8.9 36.8-18 55.7-25.2l-8.5-22.4c-10 3.8-19.6 7.9-29 12.2zm121.4-131.6l-4 3.1c9.3-7.3 18.3-15.4 28.2-21.5l-22.1 1.5c-63.1 5-112.5 16.8-155.4 37.3-38.8 18.4-90.8 53.2-117.7 113.6-21.3 47.9-24.9 103.4-10 156.2l23-6.6c-13.2-46.7-10-97.7 8.8-139.9 23.9-53.7 70.9-85 106.1-101.7 37.2-17.6 79.8-28.5 133.5-33.8 2.9-2.9 6.1-5.6 9.6-8.2zm273.6 325.3c-4 2.8-8.1 5.3-12.3 7.6 1.7.8 3.6 1.3 5.4 1.3 4 0 8-2 10.4-5.6l8-12c-3.8 3-7.6 5.9-11.5 8.7zM707.1 128.6h-1.5c-25.2-.5-48.5-13.5-65.5-36.5C623.8 70 615.2 41 615.7 10.5c.6-30.1 10.3-58.6 27.2-79.9 17.9-22.7 41.9-35 67.4-34.5 50.8 1 91.2 54 89.9 118.2-.6 30.1-10.3 58.6-27.2 79.9-17.6 22.1-41 34.4-65.9 34.4zM708.8-80c-37.1 0-68.1 40.8-69.1 91-.5 25.2 6.5 49 19.7 66.9 12.5 16.9 29.1 26.5 46.7 26.8h1c37.1 0 68.1-40.8 69.1-91 1-50.9-28.8-93-66.4-93.7h-1z"/><path d="M443.1 213c-1-46.4 7.5-113.2 53.4-167.5 7.4-8.7 16.1-17.3 27.4-26.9 1.3-1.2 2.6-2.2 4-3.4 7.9-6.8 16.1-13.9 25.4-19.7 18-11.2 38.2-18.4 57.9-25.2l13.2-4.7 8.2 22.5-13.5 4.8c-18.4 6.4-37.3 13-53 22.9-7.6 4.9-15.2 11.3-22.4 17.5-1.3 1.2-2.7 2.3-4 3.5-10.3 8.8-18.1 16.5-24.7 24.2-41 48.5-48.6 109.2-47.7 151.5l-24.2.5zm37.1 163.2c-.8-8.7-1.3-17.7-.5-26.5.9-9.7 2.4-19.5 4.7-29.2-2.2-7.9-4.2-15.8-6-23.8l-23.4 5.4c6.4 27.8 15.1 55.7 26.4 84.8-.5-3.6-.8-7.2-1.2-10.7zm77.5-205.4l2.7 19.2 16.7-2.2c2.2-1.5 4.3-3.1 6.6-4.5l-6.3-43.9c-.5-3.6-2.7-6.8-5.8-8.6s-7-2.1-10.4-.7c-17.5 6.9-31.4 42.2-35.1 59.6l23.5 4.9c1.5-8.2 4.7-16.6 8.1-23.8zm301.5 1.4c6.4 13.3 8.6 32.9 6.7 58 3.3 2.3 6.1 5.4 7.9 9l12.1 23.8c11.7-69.1 1.1-112.6-31.5-129.2-3.7-1.9-8.1-1.7-11.6.4-3.5 2.2-5.8 5.9-5.8 10.1-.4 15.8-2.1 32.5-5 46.7l23.5 4.9c1.5-7.5 2.8-15.5 3.7-23.7zm77.9-85.1c-31.7-67-82.5-93.8-86.8-95.9-17-9.2-37.3-19-59.4-22.9l-4.2 23.6c18.8 3.3 37 12.2 52.4 20.5.1.1.3.1.4.2.5.3 48.1 24.7 76.6 86.2 33.5 72.1 27.7 166.5-16.3 275.2l.3 2.8c1.8 19.1.8 38.9-3.5 57.8v.6c1.9-1.2 3.3-2.9 4.3-4.9 36.4-75.1 56.7-144.8 60.2-207 2.9-50.6-5.2-96.4-24-136.2z"/><path d="M693.9 586.1c-59 0-114.6-23-156.4-64.8s-64.8-97.3-64.8-156.4 23-114.6 64.8-156.4 97.3-64.8 156.4-64.8 114.6 23 156.4 64.8 64.8 97.3 64.8 156.4-23 114.6-64.8 156.4-97.3 64.8-156.4 64.8zm0-424.2c-112 0-203.1 91.2-203.1 203.1S582 568.1 693.9 568.1 897 476.9 897 365s-91.1-203.1-203.1-203.1zm58.9 183.9c14.2 13 21.3 31.3 21.3 55.1 0 15.9-3.2 29.8-9.7 41.5-6.5 11.8-16.4 20.9-29.8 27.4-13.3 6.5-30 9.7-49.8 9.7-24.7 0-46.6-5-65.8-15l11.8-25.7c16.9 8.1 34.7 12.1 53.6 12.1 11.5 0 21.4-2.1 29.8-6.2 8.3-4.1 14.7-9.7 18.9-16.7 4.3-7 6.4-14.8 6.4-23.7 0-10.8-1.8-19.8-5.3-27s-9.7-12.9-18.5-16.9-21-6-36.4-6c-14.7 0-26.4 1.3-34.9 4L633 346.9V237.1h133l-3.7 28.3h-95.8v63.9c8.5-2 16.9-3 25-3 26.7 0 47.1 6.6 61.3 19.5z"/></svg>