<svg aria-hidden="true" style="position: absolute; width: 0; height: 0; overflow: hidden;" version="1.1" xmlns="http://www.w3.org/2000/svg" xmlns:xlink="http://www.w3.org/1999/xlink">
<defs>
<symbol id="icon-logo" viewBox="0 0 83 32">
<path fill="#41464a" style="fill: var(--color1, #41464a)" d="M36.199 16.582l3.452-6.604c0.078-0.184 0.252-0.291 0.456-0.291h2.201c0.349 0 0.592 0.359 0.456 0.688l-4.79 10.027c-0.465 1.222-1.202 1.833-2.221 1.833-1.008 0-1.755-0.591-2.24-1.794l-3.995-10.085c-0.126-0.32 0.107-0.679 0.456-0.679h2.24c0.204 0 0.388 0.126 0.456 0.31l2.599 6.565c0.184 0.417 0.756 0.427 0.931 0.029zM14.245 12.267c0 0.281-0.233 0.504-0.504 0.504h-3.956c-0.815 0-1.503 0.32-2.046 0.96s-0.815 1.387-0.815 2.24v0.078h5.43c0.281 0 0.504 0.233 0.504 0.504v2.153c0 0.281-0.233 0.504-0.504 0.504h-4.926c-0.281 0-0.504 0.233-0.504 0.504v2.046c0 0.281-0.233 0.504-0.504 0.504h-2.162c-0.281 0-0.504-0.233-0.504-0.504v-5.828c0-1.707 0.582-3.2 1.745-4.461s2.589-1.891 4.296-1.891h3.947c0.281 0 0.504 0.233 0.504 0.504v2.182zM44.141 9.678h2.124c0.281 0 0.504 0.223 0.504 0.504v11.539c0 0.281-0.223 0.504-0.504 0.504h-2.124c-0.281 0-0.504-0.223-0.504-0.504v-11.539c0-0.271 0.223-0.504 0.504-0.504zM53.828 9.678h4.693c0.281 0 0.504 0.223 0.504 0.504v2.133c0 0.281-0.223 0.504-0.504 0.504h-4.693c-1.067 0-1.881 0.533-2.434 1.59h4.771c0.281 0 0.504 0.223 0.504 0.504v2.124c0 0.281-0.223 0.504-0.504 0.504h-4.771c0.553 1.047 1.367 1.561 2.434 1.561h4.693c0.281 0 0.504 0.223 0.504 0.504v2.114c0 0.281-0.223 0.504-0.504 0.504h-4.693c-1.678 0-3.093-0.621-4.238-1.862-1.154-1.241-1.726-2.705-1.726-4.402 0-1.687 0.572-3.161 1.726-4.412 1.144-1.241 2.56-1.871 4.238-1.871zM71.728 19.181c0.543 0 0.999-0.194 1.377-0.572s0.562-0.834 0.562-1.358v-7.079c0-0.271 0.223-0.495 0.495-0.495h2.065c0.272 0 0.495 0.223 0.495 0.495v7.079c0 1.377-0.485 2.55-1.464 3.52s-2.153 1.455-3.53 1.455c-1.183 0-2.23-0.369-3.142-1.115-0.184-0.145-0.446-0.145-0.621 0-0.902 0.747-1.949 1.115-3.142 1.115-1.367 0-2.531-0.485-3.51-1.455s-1.464-2.143-1.464-3.52v-7.079c0-0.271 0.223-0.495 0.495-0.495h2.065c0.272 0 0.495 0.223 0.495 0.495v7.079c0 0.524 0.184 0.979 0.562 1.358s0.824 0.572 1.358 0.572c0.543 0 0.999-0.194 1.377-0.572s0.562-0.834 0.562-1.358v-7.079c0-0.271 0.223-0.495 0.495-0.495h2.065c0.272 0 0.495 0.223 0.495 0.495v7.079c0 0.524 0.184 0.979 0.562 1.358 0.359 0.378 0.815 0.572 1.348 0.572z"></path>
<path fill="#3eb76f" style="fill: var(--color2, #3eb76f)" d="M15.069 21.45c-0.291 0.339-0.049 0.853 0.398 0.853h2.153c0.145 0 0.291-0.068 0.388-0.175l3.151-3.588-1.881-2.046-4.209 4.955zM25.27 17.648l-1.6-1.823 4.752-5.353c0.301-0.339 0.058-0.863-0.388-0.863h-2.502c-0.155 0-0.301 0.068-0.398 0.184l-3.345 3.898-3.423-3.898c-0.097-0.116-0.242-0.184-0.398-0.184h-2.502c-0.446 0-0.688 0.533-0.388 0.863l8.339 9.27 2.075 2.385c0.097 0.107 0.242 0.175 0.388 0.175h2.153c0.446 0 0.689-0.524 0.398-0.853l-3.161-3.801z"></path>
</symbol>
<symbol id="icon-Frame" viewBox="0 0 32 32">
<path d="M3.76 9.143l-3.76 3.479 16 14.806 16-14.806-3.76-3.479-12.24 11.302-12.24-11.302z"></path>
</symbol>
<symbol id="icon-search" viewBox="0 0 34 32">
<path d="M14.035 24c2.491-0 4.911-0.793 6.873-2.251l6.17 5.861 1.985-1.885-6.17-5.861c1.535-1.864 2.37-4.163 2.371-6.531 0-5.881-5.037-10.667-11.228-10.667s-11.228 4.785-11.228 10.667c0 5.881 5.037 10.667 11.228 10.667zM14.035 5.333c4.644 0 8.421 3.588 8.421 8s-3.777 8-8.421 8c-4.644 0-8.421-3.588-8.421-8s3.777-8 8.421-8z"></path>
</symbol>
</defs>
</svg>
