<svg xmlns="http://www.w3.org/2000/svg" width="68" height="60" fill="none" xmlns:v="https://vecta.io/nano"><path opacity=".1" d="M62.1 34.3h-.2.1c-1.7-.5-2.9-2-2.9-3.8 0-1.2.6-2.3 1.5-3.1h1.6c3.2 0 5.8-2.6 5.8-5.8s-2.6-5.8-5.8-5.8h-3.8c-1.2-.7-2-2-2-3.5 0-1.4.8-2.7 1.9-3.4h2c2.2 0 4-1.8 4-4s-1.8-4-4-4H12.9c-2.2 0-4 1.8-4 4s1.8 4 4 4H15c1.1.7 1.9 2 1.9 3.4 0 1.5-.8 2.8-2 3.5H6.8c-3.2 0-5.8 2.6-5.8 5.8s2.6 5.8 5.8 5.8h11c.9.7 1.4 1.8 1.4 3.1 0 1.9-1.3 3.4-3 3.9H6.7C3.5 34.4.9 37 .9 40.2S3.5 46 6.7 46h13.4c.5.5.8 1.2.8 1.9s-.3 1.4-.8 1.9h-5.5c-2.7 0-4.8 2.2-4.8 4.8 0 2.7 2.2 4.8 4.8 4.8h45.7c2.7 0 4.8-2.2 4.8-4.8 0-2.7-2.2-4.8-4.8-4.8h-5.8c-.5-.5-.8-1.1-.8-1.9s.3-1.4.8-1.9H62c3.2 0 5.8-2.6 5.8-5.8a5.68 5.68 0 0 0-5.7-5.9z" fill="#3fb771"/><path d="M51.667 25.404V24h-1.333v1.286H49v1.929c0 1.063.897 1.928 2 1.928.368 0 .667.289.667.643v.643H51c-.368 0-.667-.289-.667-.643v-.643H49v.643c0 .837.559 1.544 1.333 1.81V33h1.333v-1.286H53v-1.929c0-1.063-.897-1.929-2-1.929-.368 0-.667-.289-.667-.643v-.643H51c.368 0 .667.289.667.643v.643H53v-.643c0-.837-.559-1.544-1.333-1.81z" fill="#41464a"/><path d="M57 28.323c0-3.62-2.945-6.565-6.565-6.565s-6.564 2.945-6.564 6.565c0 1.296.375 2.53 1.069 3.587-1.552.02-3.014.412-4.305 1.091a6.22 6.22 0 0 0-1.932-2.076 6.28 6.28 0 0 0-2.58-.986l-2.512-.359-.347-1.387c1.023-.64 1.785-1.655 2.095-2.853h.157a2.39 2.39 0 0 0 2.387-2.387 2.36 2.36 0 0 0-.535-1.487l.43-1.602a3.49 3.49 0 0 0 .105-.849c0-1.464-.925-2.784-2.3-3.285l-3.926-1.428c-.551-.201-1.127-.302-1.713-.302a5.03 5.03 0 0 0-4.008 2.004l-.303.403a2.39 2.39 0 0 0-2.073 2.367c0 .96.337 2.141.52 2.708-.32.406-.52.912-.52 1.469a2.39 2.39 0 0 0 2.387 2.387h.157c.31 1.198 1.072 2.212 2.095 2.853l-.347 1.388-2.512.359a6.29 6.29 0 0 0-2.58.986A6.23 6.23 0 0 0 20 36.119v10.704h17.176C38.898 49.342 41.791 51 45.065 51c5.265 0 9.548-4.284 9.548-9.548 0-2.619-1.061-4.993-2.773-6.72 2.946-.645 5.16-3.272 5.16-6.409zM42.762 45.629a12.69 12.69 0 0 1-.659-3.581h5.924c-.06 1.37-.314 2.564-.664 3.581h-4.601zm4.118 1.194c-.637 1.355-1.378 2.273-1.817 2.744-.441-.47-1.183-1.386-1.821-2.744h3.638zm-3.632-10.742c.637-1.355 1.378-2.273 1.817-2.744.441.47 1.183 1.386 1.821 2.744h-3.638zm4.118 1.194c.348 1.015.6 2.209.659 3.581h-5.924c.06-1.369.314-2.564.664-3.581h4.601zm-5.436-1.194h-3.257a8.35 8.35 0 0 1 4.904-2.844c-.522.667-1.135 1.613-1.647 2.844zm-4.091 1.194h3.658c-.317 1.037-.536 2.233-.589 3.581H36.74c.092-1.298.48-2.513 1.1-3.581zm3.069 4.774c.053 1.348.272 2.544.589 3.581h-3.658c-.62-1.068-1.008-2.283-1.1-3.581h4.17zm8.312 0h4.169a8.28 8.28 0 0 1-1.1 3.581h-3.658c.318-1.037.536-2.232.59-3.581zm0-1.194c-.053-1.348-.272-2.544-.589-3.581h3.658c.62 1.068 1.008 2.283 1.1 3.581h-4.17zm-1.022-4.774c-.513-1.231-1.126-2.177-1.647-2.844a8.35 8.35 0 0 1 4.904 2.844h-3.257zm-17.456-2.913l.769.385-.492.738h-.554l-.492-.738.769-.385zm-1.845.923l.59.886-.605 1.816a13.51 13.51 0 0 1-.978-2.205l.993-.497zm1.679 1.394h.333l.871 2.611c-.321.449-.66.887-1.038 1.3a13.7 13.7 0 0 1-1.038-1.3l.871-2.611zm2.027 1.308l-.605-1.816.59-.886.994.497c-.26.763-.587 1.5-.979 2.205zm1.688-5.91c-.045.865-.169 1.713-.371 2.54l-2.171-1.085 1.59-1.59.951.135zm1.226-6.736v-2.387c.658 0 1.194.535 1.194 1.194s-.535 1.194-1.194 1.194zm-10.742-1.194c0-.658.535-1.194 1.194-1.194h.022c-.009.12-.022.239-.022.361v2.026c-.658 0-1.194-.535-1.194-1.194zm1.468-2.387h-.274c-.3 0-.584.062-.849.164-.158-.549-.344-1.328-.344-1.954 0-.658.535-1.194 1.194-1.194h.298l.645-.861c.717-.956 1.858-1.527 3.053-1.527.446 0 .884.077 1.305.23l3.926 1.428a2.31 2.31 0 0 1 1.515 2.163c0 .188-.023.375-.066.548l-.31 1.155c-.256-.094-.529-.153-.818-.153h-.597c-2.765 0-6.199-2.264-6.233-2.287l-.332-.22-.331.221c-.838.559-1.452 1.366-1.781 2.287zm.919 3.581v-2.026c0-1.02.45-1.975 1.222-2.622.933.57 3.506 2.016 5.94 2.233v2.415c0 1.975-1.606 3.581-3.581 3.581s-3.581-1.606-3.581-3.581zm3.581 4.774a4.77 4.77 0 0 0 1.42-.215l.306 1.226-1.726 1.726-1.726-1.726.306-1.226c.448.139.926.215 1.42.215zm-2.598 1.827l1.59 1.59-2.171 1.085c-.201-.827-.326-1.676-.371-2.54l.951-.135zm-3.37 14.883v-8.952h-1.194v8.952h-2.387v-9.51a5.04 5.04 0 0 1 2.249-4.203c.623-.415 1.345-.692 2.088-.798l.464-.066c.213 3.638 1.734 7.035 4.325 9.627l.422.422.422-.422c2.592-2.592 4.112-5.989 4.326-9.627l.464.066c.742.106 1.465.383 2.087.798.655.437 1.187 1.023 1.575 1.704-2.475 1.727-4.1 4.591-4.1 7.831a9.47 9.47 0 0 0 .976 4.177H24.774zm13.9 1.194h3.257a12.3 12.3 0 0 0 1.647 2.844 8.35 8.35 0 0 1-4.904-2.844zm7.877 2.844a12.3 12.3 0 0 0 1.647-2.844h3.257a8.35 8.35 0 0 1-4.904 2.844zm4.047-15.981a9.48 9.48 0 0 0-4.04-1.653c-.962-1.004-1.494-2.313-1.494-3.709a5.38 5.38 0 0 1 5.371-5.371 5.38 5.38 0 0 1 5.371 5.371c0 2.906-2.322 5.275-5.208 5.363z" fill="#3fb870"/></svg>