<svg xmlns="http://www.w3.org/2000/svg" width="68" height="60" fill="none" xmlns:v="https://vecta.io/nano"><path opacity=".1" d="M62.1 34.3h-.2.1c-1.7-.5-2.9-2-2.9-3.8 0-1.2.6-2.3 1.5-3.1h1.6c3.2 0 5.8-2.6 5.8-5.8s-2.6-5.8-5.8-5.8h-3.8c-1.2-.7-2-2-2-3.5 0-1.4.8-2.7 1.9-3.4h2c2.2 0 4-1.8 4-4s-1.8-4-4-4H12.9c-2.2 0-4 1.8-4 4s1.8 4 4 4H15c1.1.7 1.9 2 1.9 3.4 0 1.5-.8 2.8-2 3.5H6.8c-3.2 0-5.8 2.6-5.8 5.8s2.6 5.8 5.8 5.8h11c.9.7 1.4 1.8 1.4 3.1 0 1.9-1.3 3.4-3 3.9H6.7C3.5 34.4.9 37 .9 40.2S3.5 46 6.7 46h13.4c.5.5.8 1.2.8 1.9s-.3 1.4-.8 1.9h-5.5c-2.7 0-4.8 2.2-4.8 4.8 0 2.7 2.2 4.8 4.8 4.8h45.7c2.7 0 4.8-2.2 4.8-4.8 0-2.7-2.2-4.8-4.8-4.8h-5.8c-.5-.5-.8-1.1-.8-1.9s.3-1.4.8-1.9H62c3.2 0 5.8-2.6 5.8-5.8a5.68 5.68 0 0 0-5.7-5.9h0z" fill="#3fb771"/><g stroke="#3fb870" stroke-width="1.5" stroke-miterlimit="10"><path d="M23 36H13v9h10v-9z"/><path d="M18 45v3m0-15v3m18 4H26v10h10V40z"/><path d="M31 50v2m0-15v3m19-4H40v9h10v-9z"/><path d="M45 45v3m0-15v3m18 4H53v10h10V40z"/><path d="M58 50v2m0-15v3"/></g><path d="M38 25c4.418 0 8-3.806 8-8.5S42.418 8 38 8s-8 3.806-8 8.5 3.582 8.5 8 8.5z" stroke="#41464a" stroke-width="1.5" stroke-miterlimit="10"/><path d="M37.571 21v-1.015c-.714-.145-1.286-.435-1.714-.725-.428-.435-.714-1.014-.857-1.594l1.286-.58c.143 1.015.571 1.594 1.286 1.739v-2.319c-.714-.145-1.286-.435-1.571-.87-.429-.435-.571-.87-.571-1.449s.143-1.014.571-1.449 1-.58 1.571-.725V11h1.143v1.015c1 .145 1.857.87 2.143 1.884l-1.143.725c-.143-.58-.571-1.014-1-1.304v1.884c.714.145 1.429.435 1.714.87.428.435.571.869.571 1.449s-.143 1.16-.571 1.594a2.35 2.35 0 0 1-1.714.725V21h-1.143zm-.857-6.956c0 .435.286.725.857.87v-1.739c-.571.29-.857.435-.857.87zm2.857 3.623c0-.435-.286-.725-.857-1.014v2.029c.286 0 .429-.145.714-.29 0-.29.143-.435.143-.725z" fill="#41464a"/></svg>