<svg xmlns="http://www.w3.org/2000/svg" viewBox="-247 370.9 100 100" xmlns:v="https://vecta.io/nano"><path fill="#41b772" d="M-169.4 425.2h-.2.1c-1.7-.5-2.9-2-2.9-3.8 0-1.2.6-2.3 1.5-3.1h1.6c3.2 0 5.8-2.6 5.8-5.8s-2.6-5.8-5.8-5.8h-3.8c-1.2-.7-2-2-2-3.5 0-1.4.8-2.7 1.9-3.4h2c2.2 0 4-1.8 4-4s-1.8-4-4-4h-47.3c-2.2 0-4 1.8-4 4s1.8 4 4 4h2.2c1.1.7 1.9 2 1.9 3.4 0 1.5-.8 2.8-2 3.5h-8.1c-3.2 0-5.8 2.6-5.8 5.8s2.6 5.8 5.8 5.8h11c.9.7 1.4 1.8 1.4 3.1 0 1.9-1.3 3.4-3 3.9h-9.5c-3.2 0-5.8 2.6-5.8 5.8s2.6 5.8 5.8 5.8h13.4c.5.5.8 1.2.8 1.9s-.3 1.4-.8 1.9h-5.5c-2.7 0-4.8 2.2-4.8 4.8 0 2.7 2.2 4.8 4.8 4.8h45.7c2.7 0 4.8-2.2 4.8-4.8 0-2.7-2.2-4.8-4.8-4.8h-5.8c-.5-.5-.8-1.1-.8-1.9s.3-1.4.8-1.9h7.5c3.2 0 5.8-2.6 5.8-5.8-.1-3.3-2.7-5.9-5.9-5.9z" opacity=".1"/><g stroke="#42474a" stroke-miterlimit="10" stroke-width=".8"><path fill="#e0dfe1" d="M-179.2 424.5h-2.5c-.1 0-.2-.1-.2-.2-.4-2.1-1.2-4.1-2.4-5.8-.1-.1 0-.2 0-.3l1.8-1.8c.1-.1.1-.2 0-.3l-3.5-3.5c-.1-.1-.2-.1-.3 0l-1.8 1.8c-.1.1-.2.1-.3 0-1.7-1.2-3.7-2-5.8-2.4-.1 0-.2-.1-.2-.2v-2.5c0-.1-.1-.2-.2-.2h-5c-.1 0-.2.1-.2.2v2.5c0 .1-.1.2-.2.2-2.1.4-4.1 1.2-5.8 2.4-.1.1-.2 0-.3 0l-1.8-1.8c-.1-.1-.2-.1-.3 0l-3.5 3.5c-.1.1-.1.2 0 .3l1.8 1.8c.1.1.1.2 0 .3-1.2 1.7-2 3.7-2.4 5.8 0 .1-.1.2-.2.2h-2.5c-.1 0-.2.1-.2.2v5c0 .1.1.2.2.2h2.5c.1 0 .2.1.2.2.4 2.1 1.2 4.1 2.4 5.8.1.1 0 .2 0 .3l-1.8 1.8c-.1.1-.1.2 0 .3l3.5 3.5c.1.1.2.1.3 0l1.8-1.8c.1-.1.2-.1.3 0 1.7 1.2 3.7 2 5.8 2.4.1 0 .2.1.2.2v2.5c0 .1.1.2.2.2h5c.1 0 .2-.1.2-.2v-2.5c0-.1.1-.2.2-.2 2.1-.4 4.1-1.2 5.8-2.4.1-.1.2 0 .3 0l1.8 1.8c.1.1.2.1.3 0l3.5-3.5c.1-.1.1-.2 0-.3l-1.8-1.8c-.1-.1-.1-.2 0-.3 1.2-1.7 2-3.7 2.4-5.8 0-.1.1-.2.2-.2h2.5c.1 0 .2-.1.2-.2v-5c0-.1-.1-.2-.2-.2zm-17.8 12a9.39 9.39 0 1 1 0-18.8 9.39 9.39 0 1 1 0 18.8z"/><path fill="#41b772" d="M-171.1 418.8c0-4-2.9-7.3-6.7-7.9v-.5a6.7 6.7 0 0 0-6.7-6.7c-.9 0-1.8.2-2.6.5-2.3-4.4-7-7.4-12.3-7.4s-9.9 2.9-12.2 7.2c-6.2.1-11.2 5.1-11.2 11.4s5.1 11.4 11.4 11.4c.5 0 1 0 1.5-.1h29.8c.4.1.8.1 1.2.1s.8 0 1.2-.1h.1 0c3.6-.6 6.5-3.9 6.5-7.9z"/></g><path d="M-208.4 419.9l4.1-10.1h1.8l4.1 10.1h-2l-1-2.6h-3.9l-1 2.6h-2.1zm4.7-6.8l-.9 2.4h2.6l-.9-2.4c-.1-.3-.3-.7-.4-1.1l-.4 1.1zm6.2 6.8v-10.1h4.6c1.2 0 2.1.3 2.8.9s1 1.4 1 2.4c0 1.1-.3 1.9-1 2.4-.7.6-1.6.9-2.8.9h-2.7v3.5h-1.9zm1.9-8.4v3.2h2.6c.6 0 1.1-.1 1.5-.4.3-.3.5-.7.5-1.2s-.2-.9-.5-1.2-.8-.4-1.5-.4h-2.6zm8.1 8.4v-10.1h1.9v10.1h-1.9z" fill="#42474a"/></svg>