<svg xmlns="http://www.w3.org/2000/svg" viewBox="-247 370.9 100 100" xmlns:v="https://vecta.io/nano"><path fill="#41b772" d="M-169.4 425h-.2.1c-1.7-.5-2.9-2-2.9-3.8 0-1.2.6-2.3 1.5-3.1h1.6c3.2 0 5.8-2.6 5.8-5.8s-2.6-5.8-5.8-5.8h-3.8c-1.2-.7-2-2-2-3.5 0-1.4.8-2.7 1.9-3.4h2c2.2 0 4-1.8 4-4s-1.8-4-4-4h-47.3c-2.2 0-4 1.8-4 4s1.8 4 4 4h2.2c1.1.7 1.9 2 1.9 3.4 0 1.5-.8 2.8-2 3.5h-8.1c-3.2 0-5.8 2.6-5.8 5.8s2.6 5.8 5.8 5.8h11c.9.7 1.4 1.8 1.4 3.1 0 1.9-1.3 3.4-3 3.9h-9.5c-3.2 0-5.8 2.6-5.8 5.8s2.6 5.8 5.8 5.8h13.4c.5.5.8 1.2.8 1.9s-.3 1.4-.8 1.9h-5.5c-2.7 0-4.8 2.2-4.8 4.8 0 2.7 2.2 4.8 4.8 4.8h45.7c2.7 0 4.8-2.2 4.8-4.8 0-2.7-2.2-4.8-4.8-4.8h-5.8c-.5-.5-.8-1.1-.8-1.9s.3-1.4.8-1.9h7.5c3.2 0 5.8-2.6 5.8-5.8-.1-3.3-2.7-5.9-5.9-5.9z" opacity=".1"/><g fill="none" stroke="#42474a" stroke-miterlimit="10" stroke-width=".8"><path d="M-224.3 420.9l14.2-14.2 17 9.2 22.3-12.6"/><path d="M-173.3 402.7l2.5.6m0 0l-.7 2.6" stroke-linecap="square"/></g><path d="M-214.5 440.5h-3.6a.68.68 0 0 1-.7-.7V426a.68.68 0 0 1 .7-.7h3.6a.68.68 0 0 1 .7.7v13.8a.68.68 0 0 1-.7.7zm10.7 0h-3.6a.68.68 0 0 1-.7-.7v-21a.68.68 0 0 1 .7-.7h3.6a.68.68 0 0 1 .7.7v21a.68.68 0 0 1-.7.7zm32.1 0h-3.6a.68.68 0 0 1-.7-.7v-30.3a.68.68 0 0 1 .7-.7h3.6a.68.68 0 0 1 .7.7v30.3a.68.68 0 0 1-.7.7zm-21.4 0h-3.6a.68.68 0 0 1-.7-.7v-14.6a.68.68 0 0 1 .7-.7h3.6a.68.68 0 0 1 .7.7v14.6a.68.68 0 0 1-.7.7zm10.7 0h-3.6a.68.68 0 0 1-.7-.7v-19.3a.68.68 0 0 1 .7-.7h3.6a.68.68 0 0 1 .7.7v19.3a.68.68 0 0 1-.7.7z" stroke="#42474a" stroke-width=".8" stroke-miterlimit="10" fill="#41b772"/></svg>