<?xml version="1.0" encoding="utf-8"?>
<!-- Generator: Adobe Illustrator 19.0.0, SVG Export Plug-In . SVG Version: 6.00 Build 0)  -->
<svg version="1.1" id="Layer_1" xmlns="http://www.w3.org/2000/svg" xmlns:xlink="http://www.w3.org/1999/xlink" x="0px" y="0px"
	 viewBox="0 0 45 45" style="enable-background:new 0 0 45 45;" xml:space="preserve">
<style type="text/css">
	.st0{opacity:0.15;fill:#41B870;enable-background:new    ;}
	.st1{fill:#41B870;}
</style>
<path id="XMLID_5_" class="st0" d="M37.5,44H7.4C3.9,44,1,41,1,37.5V7.4C1,3.9,3.9,1,7.4,1h30.1C41,1,44,3.9,44,7.4v30.1
	C44,41,41.1,44,37.5,44z"/>
<g>
	<path class="st1" d="M29.3,24.6H15.5c0.1,0.1,0.1,0.3,0.1,0.4c0,0.1,0,0.3-0.1,0.4h13.8c-0.1-0.1-0.1-0.3-0.1-0.4
		S29.3,24.8,29.3,24.6z M29.3,24.6H15.5c0.1,0.1,0.1,0.3,0.1,0.4c0,0.1,0,0.3-0.1,0.4h13.8c-0.1-0.1-0.1-0.3-0.1-0.4
		S29.3,24.8,29.3,24.6z M29.3,24.6H15.5c0.1,0.1,0.1,0.3,0.1,0.4c0,0.1,0,0.3-0.1,0.4h13.8c-0.1-0.1-0.1-0.3-0.1-0.4
		S29.3,24.8,29.3,24.6z M29.3,24.6H15.5c0.1,0.1,0.1,0.3,0.1,0.4c0,0.1,0,0.3-0.1,0.4h13.8c-0.1-0.1-0.1-0.3-0.1-0.4
		S29.3,24.8,29.3,24.6z M36.7,21.4H7.4c-1.1,0-2,0.9-2,2v2h1.6v7.8c0,1.2,1,2.2,2.2,2.2h26.2c1.2,0,2.2-1,2.2-2.2v-7.8h1.2v-2
		C38.8,22.3,37.9,21.4,36.7,21.4z M37.9,24.6h-3.9c0.1,0.1,0.1,0.3,0.1,0.4s0,0.3-0.1,0.4h2.7v7.8c0,0.8-0.6,1.4-1.4,1.4H9.1
		c-0.8,0-1.4-0.6-1.4-1.4v-7.8h2.9c-0.1-0.1-0.1-0.3-0.1-0.4c0-0.2,0-0.3,0.1-0.4H6.2v-1.2c0-0.7,0.5-1.2,1.2-1.2h29.4
		c0.7,0,1.2,0.5,1.2,1.2V24.6z M15.5,24.6c0.1,0.1,0.1,0.3,0.1,0.4c0,0.1,0,0.3-0.1,0.4h13.8c-0.1-0.1-0.1-0.3-0.1-0.4
		s0-0.3,0.1-0.4H15.5z M29.3,24.6H15.5c0.1,0.1,0.1,0.3,0.1,0.4c0,0.1,0,0.3-0.1,0.4h13.8c-0.1-0.1-0.1-0.3-0.1-0.4
		S29.3,24.8,29.3,24.6z M29.3,24.6H15.5c0.1,0.1,0.1,0.3,0.1,0.4c0,0.1,0,0.3-0.1,0.4h13.8c-0.1-0.1-0.1-0.3-0.1-0.4
		S29.3,24.8,29.3,24.6z"/>
	<path class="st1" d="M14,27h-0.5c-1,0-1.8-0.8-1.8-1.8v-3.7h4.2v3.7C15.9,26.2,15.1,27,14,27z M12.5,22.2v2.9c0,0.5,0.4,1,1,1H14
		c0.5,0,1-0.4,1-1v-2.9H12.5z"/>
	<path class="st1" d="M31.2,27h-0.5c-1,0-1.8-0.8-1.8-1.8v-3.7H33v3.7C33,26.2,32.2,27,31.2,27z M29.7,22.2v2.9c0,0.5,0.4,1,1,1h0.5
		c0.5,0,1-0.4,1-1v-2.9H29.7z"/>
	<path class="st1" d="M23.5,22.1H21c-0.2,0-0.3-0.1-0.4-0.2l-3.2-6.7L16,16.1c-0.1,0.1-0.3,0.1-0.4,0c-0.1-0.1-0.2-0.2-0.2-0.4v-4.9
		c0-0.2,0.1-0.3,0.2-0.4l1.9-1c0.1-0.1,0.3-0.1,0.4,0l3.9,2.7c0.1,0.1,0.2,0.2,0.2,0.4c0,0.1-0.1,0.3-0.2,0.4l-1.7,0.9l3.7,7.6
		c0.1,0.1,0.1,0.3,0,0.4C23.8,22,23.6,22.1,23.5,22.1z M21.2,21.2h1.6l-3.6-7.4c-0.1-0.2,0-0.5,0.2-0.6l1.4-0.8l-3.1-2.1l-1.5,0.7
		v3.8l1.2-0.7c0.1-0.1,0.2-0.1,0.3,0c0.1,0,0.2,0.1,0.3,0.2L21.2,21.2z"/>
	<path id="XMLID_4_" class="st1" d="M26.7,22.2c-0.1,0-0.2,0-0.3-0.1c-0.2-0.2-0.2-0.4,0-0.6l4.6-5.5c-0.3-0.3-0.6-0.9-0.5-1.6
		c0.1-0.2-0.1-0.8-0.5-1.1c-0.5-0.4-1.1-0.4-1.8-0.1c-0.3,0.1-0.8,0.4-1.1,0c-0.1-0.1-0.2-0.3,0.1-0.7c0.6-0.8,3.8-2.9,6.6-1.7
		c3.3,1.4,3.6,2,4,2.7l0.1,0.1c0.1,0.2,0.2,0.4,0.2,0.6c0.1,0.3,0.2,0.7,0.4,0.8c0.2,0.1,0.5,0.1,0.9-0.1c0.1,0,0.3,0,0.4,0.1
		l1.6,1.2c0.1,0.1,0.2,0.2,0.2,0.3c0,0.1,0,0.2-0.1,0.3l-2.7,3.4c-0.1,0.1-0.3,0.2-0.4,0.1c-0.1,0-1.7-0.5-2.1-2.2
		c0-0.2-0.1-0.2-0.1-0.2c-0.1-0.1-0.5,0.1-0.8,0.2c-0.6,0.2-1.4,0.5-2,0c-0.7-0.5-1.1-0.9-1.2-1.2c0-0.2,0.2-0.4,0.4-0.5
		c0.2,0,0.4,0.2,0.5,0.4c0,0.1,0.4,0.4,0.8,0.6c0,0,0.1,0,0.1,0.1c0.2,0.2,0.6,0.1,1.1-0.1c0.5-0.2,1-0.4,1.5-0.1
		c0.3,0.1,0.4,0.4,0.5,0.8c0.2,0.9,0.8,1.3,1.2,1.5l2.2-2.8l-1.1-0.8c-0.6,0.2-1,0.1-1.4-0.1c-0.5-0.3-0.7-0.9-0.8-1.3
		c0-0.2-0.1-0.3-0.1-0.4L37,13.9c-0.2-0.5-0.5-1-3.5-2.3c-1.5-0.6-3.2-0.1-4.4,0.6c0.7,0,1.2,0.3,1.5,0.5c0.6,0.5,1,1.4,0.8,2
		c-0.1,0.5,0.5,1.1,0.5,1.1c0.2,0.2,0.2,0.4,0,0.6L27,22.1C26.9,22.2,26.8,22.2,26.7,22.2z"/>
	<path id="XMLID_3_" class="st1" d="M30.9,21.9c-0.1,0-0.2,0-0.2-0.1c-0.2-0.1-0.2-0.4-0.1-0.6l2.6-3.8c0.1-0.2,0.4-0.2,0.6-0.1
		c0.2,0.1,0.2,0.4,0.1,0.6l-2.6,3.8C31.2,21.8,31.1,21.9,30.9,21.9z"/>
	<path class="st1" d="M17.3,22.1h-6.7c-0.2,0-0.3-0.1-0.4-0.3l-0.4-1.1c-0.2-0.2-0.7-0.6-1.9-1.6c-0.6,0.1-2.4,0.2-3.5-0.9
		c-0.8-0.8-1.1-2.1-0.8-3.9c0-0.2,0.1-0.3,0.3-0.3c0.1,0,0.3,0,0.4,0.1l1.8,1.8l2-2l-2-2C6,11.8,6,11.7,6,11.5
		c0-0.1,0.1-0.3,0.3-0.3c0.1,0,2.7-0.8,4.3,0.5c0.9,0.7,1.2,2,1,3.6l6,6c0.1,0.1,0.2,0.3,0.1,0.5C17.6,22,17.5,22.1,17.3,22.1z
		 M10.9,21.2h5.3l-5.5-5.4c-0.1-0.1-0.1-0.2-0.1-0.4c0.2-1.5,0-2.5-0.7-3.1c-0.8-0.7-2-0.6-2.7-0.5L9,13.6c0.2,0.2,0.2,0.4,0,0.6
		l-2.6,2.6C6.3,17,6,17,5.8,16.8l-1.5-1.5c-0.1,1,0.1,1.8,0.6,2.3c1,1,2.9,0.7,2.9,0.7c0.1,0,0.3,0,0.4,0.1c0.9,0.8,1.8,1.6,2,1.7
		c0.1,0,0.2,0.1,0.2,0.2L10.9,21.2z"/>
</g>
</svg>
