<svg xmlns="http://www.w3.org/2000/svg" viewBox="-247 370.9 100 100" xmlns:v="https://vecta.io/nano"><path fill="#41b772" d="M-169.4 425h-.2.1c-1.7-.5-2.9-2-2.9-3.8 0-1.2.6-2.3 1.5-3.1h1.6c3.2 0 5.8-2.6 5.8-5.8s-2.6-5.8-5.8-5.8h-3.8c-1.2-.7-2-2-2-3.5 0-1.4.8-2.7 1.9-3.4h2c2.2 0 4-1.8 4-4s-1.8-4-4-4h-47.3c-2.2 0-4 1.8-4 4s1.8 4 4 4h2.2c1.1.7 1.9 2 1.9 3.4 0 1.5-.8 2.8-2 3.5h-8.1c-3.2 0-5.8 2.6-5.8 5.8s2.6 5.8 5.8 5.8h11c.9.7 1.4 1.8 1.4 3.1 0 1.9-1.3 3.4-3 3.9h-9.5c-3.2 0-5.8 2.6-5.8 5.8s2.6 5.8 5.8 5.8h13.4c.5.5.8 1.2.8 1.9s-.3 1.4-.8 1.9h-5.5c-2.7 0-4.8 2.2-4.8 4.8 0 2.7 2.2 4.8 4.8 4.8h45.7c2.7 0 4.8-2.2 4.8-4.8 0-2.7-2.2-4.8-4.8-4.8h-5.8c-.5-.5-.8-1.1-.8-1.9s.3-1.4.8-1.9h7.5c3.2 0 5.8-2.6 5.8-5.8s-2.7-5.9-5.9-5.9z" opacity=".1"/><g stroke="#42474a" stroke-width=".8"><circle cx="-196.8" cy="423.2" r="24.3" fill="none"/><g fill="#e0dfe1"><circle cx="-197" cy="398.7" r="4.4"/><circle cx="-218.7" cy="434.1" r="4.4"/><circle cx="-175.3" cy="434.1" r="4.4"/></g><path fill="#41b772" stroke-miterlimit="10" d="M-186 415.6l-11-4.9h0l-11 4.9c-.1 2.1.1 5.9 2.1 10.1 2.7 5.8 7.1 8.8 8.9 9.9h0c2-1.3 5.9-4.4 8.6-9.9 2-4.1 2.4-7.9 2.4-10.1z"/></g></svg>