<svg xmlns="http://www.w3.org/2000/svg" viewBox="-247 370.9 100 100" xmlns:v="https://vecta.io/nano"><style><![CDATA[.E{stroke:#42474a}.F{stroke-width:.8}.G{stroke-miterlimit:10}.H{stroke-linecap:square}]]></style><g fill="#40b672"><path d="M-169.4 425h-.2.1c-1.7-.5-2.9-2-2.9-3.8 0-1.2.6-2.3 1.5-3.1h1.6c3.2 0 5.8-2.6 5.8-5.8s-2.6-5.8-5.8-5.8h-3.8c-1.2-.7-2-2-2-3.5 0-1.4.8-2.7 1.9-3.4h2c2.2 0 4-1.8 4-4s-1.8-4-4-4h-47.3c-2.2 0-4 1.8-4 4s1.8 4 4 4h2.2c1.1.7 1.9 2 1.9 3.4 0 1.5-.8 2.8-2 3.5h-8.1c-3.2 0-5.8 2.6-5.8 5.8s2.6 5.8 5.8 5.8h11c.9.7 1.4 1.8 1.4 3.1 0 1.9-1.3 3.4-3 3.9h-9.5c-3.2 0-5.8 2.6-5.8 5.8s2.6 5.8 5.8 5.8h13.4c.5.5.8 1.2.8 1.9s-.3 1.4-.8 1.9h-5.5c-2.7 0-4.8 2.2-4.8 4.8 0 2.7 2.2 4.8 4.8 4.8h45.7c2.7 0 4.8-2.2 4.8-4.8 0-2.7-2.2-4.8-4.8-4.8h-5.8c-.5-.5-.8-1.1-.8-1.9s.3-1.4.8-1.9h7.5c3.2 0 5.8-2.6 5.8-5.8-.1-3.3-2.7-5.9-5.9-5.9z" opacity=".1"/><circle cx="-195.6" cy="422.2" r="18.1" class="E F"/></g><g fill="#e0dfe0" class="E"><circle cx="-195.6" cy="422.2" r="12.7" class="F"/><g class="G F"><path d="M-195.6 422.5v-2.4" class="H"/><path d="M-214.2 403.8l18.6 18.7"/><g class="H"><path d="M-197.9 422.5h2.3m-18.6-18.7v-2.3"/><path d="M-216.6 403.8h2.4m1.1 1.2v-2.4m-2.3 2.4h2.3"/></g></g><circle cx="-195.5" cy="411.8" r=".3"/><circle cx="-195.2" cy="432.7" r=".3"/><circle cx="-187.8" cy="429.5" r=".3"/><circle cx="-205.8" cy="422.4" r=".3"/><circle cx="-184.8" cy="422.1" r=".3"/><circle cx="-202.6" cy="429.8" r=".3"/><circle cx="-188" cy="414.7" r=".3"/></g><path d="M-195.5 406.5v-2.2m.3 35.7v-2.1m12.6-3.2l-1.5-1.5m-26.9-10.9h-2.2m35.7-.3h-2.1m-26.7 11.4l-1.5 1.5m25-25.5l-1.5 1.6" fill="none" stroke-linecap="round" class="G E"/></svg>