<svg xmlns="http://www.w3.org/2000/svg" viewBox="-247 370.9 100 100" xmlns:v="https://vecta.io/nano"><g fill="#40b672"><path d="M-169.4 425.1h-.2.1c-1.7-.5-2.9-2-2.9-3.8 0-1.2.6-2.3 1.5-3.1h1.6c3.2 0 5.8-2.6 5.8-5.8s-2.6-5.8-5.8-5.8h-3.8c-1.2-.7-2-2-2-3.5 0-1.4.8-2.7 1.9-3.4h2c2.2 0 4-1.8 4-4s-1.8-4-4-4h-47.3c-2.2 0-4 1.8-4 4s1.8 4 4 4h2.2c1.1.7 1.9 2 1.9 3.4 0 1.5-.8 2.8-2 3.5h-8.1c-3.2 0-5.8 2.6-5.8 5.8s2.6 5.8 5.8 5.8h11c.9.7 1.4 1.8 1.4 3.1 0 1.9-1.3 3.4-3 3.9h-9.5c-3.2 0-5.8 2.6-5.8 5.8s2.6 5.8 5.8 5.8h13.4c.5.5.8 1.2.8 1.9s-.3 1.4-.8 1.9h-5.5c-2.7 0-4.8 2.2-4.8 4.8 0 2.7 2.2 4.8 4.8 4.8h45.7c2.7 0 4.8-2.2 4.8-4.8 0-2.7-2.2-4.8-4.8-4.8h-5.8c-.5-.5-.8-1.1-.8-1.9s.3-1.4.8-1.9h7.5c3.2 0 5.8-2.6 5.8-5.8-.1-3.4-2.7-5.9-5.9-5.9z" opacity=".1"/><path d="M-197.1 410.8s-3.3-9.8-9.1-9c0 0 3.8 8.6 9.1 9zm-.2-5.7s3.3-6.6 7.3-5.4c0 0-3.5 5.6-7.3 5.4zm.5 7.8s3.3-6.6 7.3-5.4c0 0-3.5 5.7-7.3 5.4z" stroke="#42474a" stroke-width=".4" stroke-miterlimit="10"/></g><path fill="#43484a" d="M-197 420.1l-.4-18.4s1.1 12.3.6 18.7c-.5 6.5-.2-.3-.2-.3z"/><g stroke="#42474a" stroke-miterlimit="10"><path d="M-197.3 403s-1.6-7.1-5.6-6.9c0 0 1.9 6.2 5.6 6.9z" fill="#40b672" stroke-width=".4"/><path fill="#e0dfe0" stroke-width=".8" d="M-192.6 423.5h-.3l2.7-4.6s.7-1.4-1.9-.5-2.1 1.1-6.7-.7c-3.1-1.2-4.5-.4-5.1.3-.3.3-.3.8-.1 1.2l2.6 4.3h-.1s-7.3 8.9-6.4 16 10.7 6.6 10.7 6.6 9.8.5 10.7-6.6c1.1-7.1-6.1-16-6.1-16z"/></g><path d="M-191.7 424h-10.6a.47.47 0 0 1-.5-.5v-.1a.47.47 0 0 1 .5-.5h10.6a.47.47 0 0 1 .5.5v.1c0 .3-.3.5-.5.5zm-6.3 18.1v-1.4c-1.8-.3-3.3-1.4-3.3-3.5h2.3c.1 1.2 1 1.7 2.1 1.7.7 0 1.8-.2 1.8-1.1 0-2-5.9-.7-5.9-4.5 0-1.8 1.4-2.8 3-3V429h2v1.3c1.6.3 2.9 1.3 2.9 3.2h-2.3c-.1-1.1-.9-1.3-1.8-1.3-.6 0-1.4.2-1.4 1 0 1.8 5.9.5 5.9 4.4 0 2-1.5 3-3.3 3.2v1.4h-2z" fill="#42474a"/></svg>