<svg xmlns="http://www.w3.org/2000/svg" viewBox="-247 370.9 100 100" xmlns:v="https://vecta.io/nano"><path fill="#40b672" d="M-169.4 425h-.2.1c-1.7-.5-2.9-2-2.9-3.8 0-1.2.6-2.3 1.5-3.1h1.6c3.2 0 5.8-2.6 5.8-5.8s-2.6-5.8-5.8-5.8h-3.8c-1.2-.7-2-2-2-3.5 0-1.4.8-2.7 1.9-3.4h2c2.2 0 4-1.8 4-4s-1.8-4-4-4h-47.3c-2.2 0-4 1.8-4 4s1.8 4 4 4h2.2c1.1.7 1.9 2 1.9 3.4 0 1.5-.8 2.8-2 3.5h-8.1c-3.2 0-5.8 2.6-5.8 5.8s2.6 5.8 5.8 5.8h11c.9.7 1.4 1.8 1.4 3.1 0 1.9-1.3 3.4-3 3.9h-9.5c-3.2 0-5.8 2.6-5.8 5.8s2.6 5.8 5.8 5.8h13.4c.5.5.8 1.2.8 1.9s-.3 1.4-.8 1.9h-5.5c-2.7 0-4.8 2.2-4.8 4.8 0 2.7 2.2 4.8 4.8 4.8h45.7c2.7 0 4.8-2.2 4.8-4.8 0-2.7-2.2-4.8-4.8-4.8h-5.8c-.5-.5-.8-1.1-.8-1.9s.3-1.4.8-1.9h7.5c3.2 0 5.8-2.6 5.8-5.8-.1-3.3-2.7-5.9-5.9-5.9z" opacity=".1"/><g stroke="#42474a"><g stroke-miterlimit="10"><path d="M-182 434.8l-12-3.2c-2.1-.6-3.4-2.8-2.8-4.9l5.4-20.3c.6-2.1 2.8-3.4 4.9-2.8l12 3.2c2.1.6 3.4 2.8 2.8 4.9l-5.4 20.3c-.5 2.1-2.7 3.3-4.9 2.8z" stroke-width=".8" fill="#e0dfe0"/><path d="M-191.4 406.3c1 .8 2.5.9 3.5.2 1-.6 1.5-1.8 1.3-3m15 8.1c-1.3.2-2.6-.5-3.1-1.6-.5-1-.4-2.3.4-3.2m-22.5 19.9c1.3-.2 2.6.5 3.1 1.6.5 1 .4 2.3-.4 3.2m17 .5c-1-.8-2.5-.9-3.5-.2-1 .6-1.5 1.8-1.3 3" fill="none"/><path d="M-200 431.5l-12 3.2c-2.1.6-4.3-.7-4.9-2.8l-5.4-20.3c-.6-2.1.7-4.3 2.8-4.9l12-3.2c2.1-.6 4.3.7 4.9 2.8l5.4 20.3c.6 2.2-.7 4.4-2.8 4.9z" stroke-width=".8" fill="#e0dfe0"/><path d="M-222.4 411.6c1.3.2 2.6-.5 3.1-1.6.5-1 .4-2.3-.4-3.2m17-.5c-1 .8-2.5.9-3.5.2-1-.6-1.5-1.8-1.3-3m-9.4 28.5c1-.8 2.5-.9 3.5-.2 1 .6 1.5 1.8 1.3 3m14.9-8.1c-1.3-.2-2.6.5-3.1 1.6-.5 1-.4 2.3.4 3.2" fill="none"/><path d="M-189.4 431.3h-14.8c-2.2 0-4-1.8-4-4v-24.4c0-2.2 1.8-4 4-4h14.8c2.2 0 4 1.8 4 4v24.4c0 2.2-1.8 4-4 4z" stroke-width=".8" fill="#e0dfe0"/><path d="M-208.2 403.4c1.4.6 2.9.2 3.9-.8.9-1 1.1-2.4.5-3.6m18.4 4.4c-1.4.6-2.9.2-3.9-.8-.9-1-1.1-2.4-.5-3.6m-18.4 27.9c1.4-.6 2.9-.2 3.9.8.9 1 1.1 2.4.5 3.6m18.4-4.4c-1.4-.6-2.9-.2-3.9.8-.9 1-1.1 2.4-.5 3.6" fill="none"/></g><circle cx="-197" cy="433.6" r="9.2" fill="#40b672" stroke-width=".8"/></g><path d="M-197.7 438v-.9c-1.2-.2-2.2-1-2.3-2.4h1.6c0 .8.7 1.2 1.4 1.2.5 0 1.2-.1 1.2-.8 0-1.3-4-.5-4-3 0-1.2 1-1.9 2-2.1v-.9h1.3v.9c1.1.2 2 .9 2 2.2h-1.6c-.1-.7-.6-.9-1.2-.9-.4 0-.9.2-.9.7 0 1.2 4 .3 4 3 0 1.4-1.1 2-2.2 2.2v.9h-1.3zm1.9-17.8l-.6-1.6h-3l-.6 1.6h-1.9l3.2-7.9h1.5l3.2 7.9h-1.8zm-2.1-5.8l-1 2.8h2l-1-2.8zm3.8-1.8h-.9v-1.9h-1.9v-1h1.9v-1.9h.9v1.9h1.9v1h-1.9v1.9z" fill="#42474a"/></svg>