<svg xmlns="http://www.w3.org/2000/svg" xmlns:xlink="http://www.w3.org/1999/xlink" width="380" height="351" fill="none" xmlns:v="https://vecta.io/nano"><style><![CDATA[.B{stroke:#263238}.C{stroke-linejoin:round}.D{fill:#263238}.E{stroke-linecap:round}.F{fill:#fff}.G{fill:#92e3a9}.H{opacity:.2}.I{fill:#25c16f}.J{stroke-width:.879}]]></style><use xlink:href="#B" class="G"/><use xlink:href="#B" opacity=".7" class="F"/><path d="M233.08 32.24l-.54 4.58 2.48.88c.036 1.57.254 3.13.65 4.65l-2.15 1.56 1.81 4.25 2.61-.49c.813 1.341 1.78 2.583 2.88 3.7l-1.09 2.44 3.7 2.76 2-1.7a19.74 19.74 0 0 0 4.35 1.76l.28 2.65 4.57.55.89-2.49a20.29 20.29 0 0 0 4.65-.65l1.57 2.14L266 57l-.47-2.6c1.337-.814 2.576-1.78 3.69-2.88l2.44 1.09 2.76-3.7-1.71-2a19.48 19.48 0 0 0 1.76-4.34l2.65-.28.55-4.58-2.49-.89c-.031-1.567-.249-3.125-.65-4.64l2.16-1.57-1.82-4.25-2.6.48a20.25 20.25 0 0 0-2.89-3.69l1.08-2.43-3.73-2.72-2 1.71a20.52 20.52 0 0 0-4.32-1.76l-.28-2.65-4.58-.54-.89 2.48c-1.567.039-3.124.26-4.64.66l-1.57-2.15-4.25 1.81.48 2.6c-1.332.802-2.567 1.755-3.68 2.84l-2.43-1.08-2.77 3.7 1.71 2a19.8 19.8 0 0 0-1.76 4.35l-2.67.27zm10.63 3.67c.268-2.252 1.198-4.374 2.672-6.097s3.426-2.97 5.61-3.583a11.46 11.46 0 0 1 12.11 3.954c1.401 1.783 2.241 3.942 2.414 6.203a11.46 11.46 0 0 1-1.44 6.499c-1.113 1.976-2.787 3.578-4.81 4.602a11.46 11.46 0 0 1-6.556 1.152h0a11.46 11.46 0 0 1-10-12.73z" stroke-width="1.571" class="B C"/><path d="M113.61 144.94l-.49 4.15 2.25.8a18.14 18.14 0 0 0 .59 4.21l-2 1.42 1.64 3.85 2.36-.45c.738 1.213 1.614 2.337 2.61 3.35l-1 2.21L123 167l1.81-1.55c1.244.69 2.567 1.227 3.94 1.6l.25 2.4 4.15.5.8-2.26a18.03 18.03 0 0 0 4.21-.59l1.42 1.95 3.84-1.65-.42-2.4a18.52 18.52 0 0 0 3.35-2.61l2.21 1 2.5-3.34-1.55-1.83a17.93 17.93 0 0 0 1.6-3.93l2.4-.26.49-4.15-2.25-.8c-.031-1.422-.229-2.835-.59-4.21l2-1.42-1.65-3.85-2.35.43a18.43 18.43 0 0 0-2.63-3.33l1-2.21-3.43-2.49-1.82 1.55a17.79 17.79 0 0 0-3.92-1.59l-.25-2.4-4.15-.5-.8 2.26c-1.422.031-2.835.229-4.21.59l-1.42-1.91-3.85 1.64.43 2.36c-1.214.738-2.338 1.613-3.35 2.61l-2.21-1-2.5 3.35 1.55 1.82c-.685 1.246-1.222 2.569-1.6 3.94l-2.39.22zm9.63 3.32c.244-2.038 1.086-3.958 2.421-5.518s3.103-2.688 5.079-3.243a10.38 10.38 0 0 1 6.024.125c1.952.636 3.671 1.837 4.94 3.45a10.38 10.38 0 0 1 .895 11.498 10.38 10.38 0 0 1-4.347 4.173 10.39 10.39 0 0 1-5.932 1.055h0c-2.734-.328-5.225-1.728-6.928-3.891s-2.476-4.915-2.152-7.649h0z" class="D"/><path d="M161.58 13.15h-24.24v5.59h24.24v-5.59zm-8.31 8.08h-15.93v5.59h15.93v-5.59zm-6.76 8.08h-9.17v5.59h9.17v-5.59z" class="G"/><path d="M161.58 13.15h-24.24v5.59h24.24v-5.59zm-8.31 8.08h-15.93v5.59h15.93v-5.59zm-6.76 8.08h-9.17v5.59h9.17v-5.59z" class="H I"/><path d="M103.47 75.07h-8.22v16.84h8.22V75.07zm11.87 5.79h-8.22v11.06h8.22V80.86zm11.88 4.69H119v6.37h8.22v-6.37z" class="G"/><path d="M103.47 75.07h-8.22v16.84h8.22V75.07zm11.87 5.79h-8.22v11.06h8.22V80.86z" class="H I"/><path d="M127.22 85.55H119v6.37h8.22v-6.37z" fill="#000" class="H"/><path d="M192.94 104.66H93.41a10.38 10.38 0 0 1-3.982-.785c-1.263-.521-2.411-1.286-3.378-2.251A10.39 10.39 0 0 1 83 94.27V12.1A10.41 10.41 0 0 1 93.39 1.71h99.53a10.4 10.4 0 0 1 7.357 3.039 10.4 10.4 0 0 1 2.258 3.372 10.41 10.41 0 0 1 .795 3.979v82.17c0 2.756-1.095 5.398-3.043 7.347s-4.591 3.043-7.347 3.043zm-99.53-102a9.5 9.5 0 0 0-9.48 9.48v82.17a9.5 9.5 0 0 0 9.48 9.48h99.53a9.5 9.5 0 0 0 9.48-9.48V12.1a9.5 9.5 0 0 0-9.48-9.48l-99.53.04zm98.25 72.87h-35.49v.91h35.49v-.91zm0 3.81h-35.49v.91h35.49v-.91zm0 3.8h-35.49v.91h35.49v-.91zm0 3.8h-35.49v.91h35.49v-.91zm0 3.8h-35.49v.91h35.49v-.91zm-62.01-77.21H94.16v.91h35.49v-.91zm0 3.8H94.16v.91h35.49v-.91zm0 3.8H94.16v.91h35.49v-.91zm0 3.8H94.16v.91h35.49v-.91zm0 3.8H94.16v.91h35.49v-.91zm55 15.5l6.36 3.34-.73-17.94-15.17 9.6 6.36 3.33-4.79 9.11a3.78 3.78 0 0 0-2.33.8l-8.45-3.91v-.05a3.88 3.88 0 0 0-1.02-2.763c-.691-.751-1.649-1.2-2.668-1.25a3.88 3.88 0 0 0-2.776.983c-.761.68-1.223 1.632-1.286 2.65a2.41 2.41 0 0 0 0 .38c.005.555.124 1.103.35 1.61l-11 12a3.7 3.7 0 0 0-1.09-.17 2.76 2.76 0 0 0-.57.06L130 41.9a3.87 3.87 0 0 0-7.08-3.11 3.7 3.7 0 0 0-.33 1.54 4.27 4.27 0 0 0 .2 1.17L104.74 60a3.87 3.87 0 0 0-4.826 5.264A3.87 3.87 0 0 0 107.05 65h0c.151-.427.229-.877.23-1.33.001-.318-.043-.634-.13-.94L125.4 44a3.53 3.53 0 0 0 1.11.18 3.42 3.42 0 0 0 .71-.07l15.75 20a3.91 3.91 0 0 0 1.575 5.305c.912.494 1.984.607 2.979.311s1.831-.974 2.326-1.886a3.84 3.84 0 0 0 .47-1.65 2.54 2.54 0 0 0 0-.39 4.01 4.01 0 0 0-.2-1.19l11.26-12.26a3.54 3.54 0 0 0 .65.06 3.87 3.87 0 0 0 2.16-.66l8.6 4a3.86 3.86 0 0 0 .347 1.487 3.87 3.87 0 0 0 .894 1.237c.377.349.82.619 1.303.795a3.87 3.87 0 0 0 1.509.229c.513-.025 1.017-.151 1.48-.372a3.88 3.88 0 0 0 1.994-2.232c.167-.486.236-1 .203-1.513-.038-.718-.277-1.411-.69-2l4.82-9.15z" class="D"/><path d="M193.17 115.27a5.91 5.91 0 0 0-5.9 5.91v51.21c0 1.565.622 3.065 1.728 4.172s2.607 1.728 4.172 1.728h62a5.91 5.91 0 0 0 5.91-5.9v-51.24a5.91 5.91 0 0 0-5.91-5.9l-62 .02z" class="B C"/><g class="D"><path d="M196.87 122.25h-4.71v.63h4.71v-.63zm0 5.14h-4.71v.63h4.71v-.63zm0 5.14h-4.71v.63h4.71v-.63zm0 5.15h-4.71v.63h4.71v-.63z"/><path d="M196.69 127.39h-4.71v.63h4.71v-.63zm.18 15.43h-4.71v.63h4.71v-.63z"/></g><use xlink:href="#C" class="G"/><use xlink:href="#C" class="H I"/><g class="D"><path d="M212 164.22c2.127 2.145 4.655 3.851 7.441 5.019a23 23 0 0 0 8.795 1.789c3.021.013 6.015-.569 8.81-1.713a23 23 0 0 0 7.484-4.955.48.48 0 0 0 0-.64l-4.69-4.72c-.041-.044-.091-.078-.146-.102s-.114-.037-.174-.038a.57.57 0 0 0-.33.13 15.36 15.36 0 0 1-5.175 3.417 15.35 15.35 0 0 1-6.105 1.093h-1.11c-3.395-.19-6.632-1.494-9.21-3.71l-.69-.64a15.79 15.79 0 0 1-1.75-20.27.44.44 0 0 0 .05-.09c.1-.14.21-.26.33-.4a15.47 15.47 0 0 1 5.785-4.517 15.46 15.46 0 0 1 7.215-1.343c.059.001.118-.009.173-.03s.105-.054.148-.095.077-.09.101-.144a.44.44 0 0 0 .038-.171l.13-6.63a.46.46 0 0 0-.44-.47h0a23 23 0 0 0-12.914 3.708c-3.839 2.493-6.847 6.076-8.639 10.289s-2.284 8.865-1.416 13.361A23 23 0 0 0 212 164.22h0z"/><path d="M228.69 125a23.51 23.51 0 0 1 23.485 23.522 23.51 23.51 0 0 1-23.51 23.498 23.51 23.51 0 0 1-23.51-23.498A23.51 23.51 0 0 1 228.64 125h.05zm-.92 45.17c4.378.09 8.685-1.12 12.376-3.478s6.598-5.757 8.357-9.768a22.15 22.15 0 0 0 1.521-12.765 22.14 22.14 0 0 0-17.04-17.747 22.14 22.14 0 0 0-22.916 8.954 22.14 22.14 0 0 0-3.978 12.224c-.118 5.87 2.099 11.546 6.165 15.782s9.645 6.685 15.515 6.808v-.01zm.79-38.54a16.42 16.42 0 0 1 14.961 10.443 16.41 16.41 0 0 1 .741 9.505c-.698 3.171-2.321 6.065-4.664 8.314a16.42 16.42 0 0 1-8.498 4.321c-3.197.569-6.492.176-9.466-1.128a16.43 16.43 0 0 1-7.244-6.197c-1.749-2.737-2.647-5.931-2.58-9.178a16.42 16.42 0 0 1 5.045-11.509c3.141-3.015 7.352-4.659 11.705-4.571h0zm-.65 31.91a15.51 15.51 0 0 0 8.669-2.438c2.585-1.652 4.622-4.033 5.853-6.843s1.602-5.921 1.065-8.942-1.958-5.813-4.082-8.026-4.858-3.746-7.854-4.405a15.5 15.5 0 0 0-8.978.701c-2.858 1.116-5.32 3.055-7.075 5.57a15.51 15.51 0 0 0-2.788 8.563h0a15.51 15.51 0 0 0 4.323 11.049c2.848 2.965 6.757 4.677 10.867 4.761v.01z"/></g><path d="M111.67 197.13v60.66" class="B C E J"/><path d="M121.42 220.02h-5.15v34.73h5.15v-34.73z" class="D"/><path d="M128.78 234.19h-5.15v20.55h5.15v-20.55z" class="G"/><path d="M137.43 208.79h-5.15v45.96h5.15v-45.96z" class="B C F J"/><path d="M151.79 202.16h-5.15v52.58h5.15v-52.58z" class="D"/><path d="M159.16 241.74h-5.15v13.01h5.15v-13.01z" class="G"/><path d="M167.81 223.7h-5.15v31.05h5.15V223.7z" class="B C F J"/><path d="M188.79 228.45h-5.15v26.29h5.15v-26.29z" class="D"/><path d="M196.16 208.05h-5.15v46.69h5.15v-46.69z" class="G"/><g class="B C J"><path d="M204.81 218.36h-5.15v36.38h5.15v-36.38z" class="F"/><path d="M106.14 246.71h2.88m-2.88-7.49h2.88m-2.88-7.48h2.88m-2.88-7.49h2.88m-2.88-7.49h2.88m-2.88-7.49h2.88m-2.88-7.49h2.88m-.76 52.97h100.16" class="E"/></g><path opacity=".3" d="M128.78 234.19h-5.15v20.55h5.15v-20.55zm30.38 7.55h-5.15v13.01h5.15v-13.01zm37-33.69h-5.15v46.69h5.15v-46.69z" class="I"/><path d="M102.05 188.71a6.52 6.52 0 0 0-6.51 6.51v59.51a6.53 6.53 0 0 0 1.909 4.604c1.22 1.222 2.874 1.911 4.601 1.916H212.5a6.54 6.54 0 0 0 6.52-6.52V195.2a6.53 6.53 0 0 0-6.52-6.52l-110.45.03z" class="B C"/><path d="M14.65 321.74s2.31 15.42-3.28 17-9.47-.5-10.17-2.81 4.25-18.81 4.25-18.81l9.2 4.62zm97.23 3.41l24.3 5.76s1.84 1 1.64 2.65-11.29 5.88-14.4 6.41-21.06 2.87-23.61.68 2.84-19.65 2.84-19.65l9.23 4.15zm-44-281.23s3.42 5.16 3.47 7.77-.27 5.59 1.33 7.13 2.83 3.22 2.17 4l-1.93 2.3s1.65 8.79-.49 10.38-8.57 0-8.57 0v5.68s-9.14-3-15.45-2.44l-1.12-12.17S61 40.21 67.88 43.92zm56.22 35.96s-.82-6.24 2.22-10c0 0-3.64-.62-3.2-1.94s6 .41 6 .41l-1.5-3s-5.25-1.74-4.6-3.37 8.35 2.38 8.35 2.38-4.57-3.82-3.93-5.41 5.29-1.56 7.77 6.68l1.26-1.57s.45-9.38 1.74-9.89c0 0 2 1.1 2 6.49 0 0 2 2.41.73 4.45s-4.26 6.63-6.8 8.35-2.53 8.43-2.53 8.43l-7.51-2.01zM43.62 28.59l1.15-1.54s12.87-5.74 12.55-7.53-7.61.68-9-.27c0 0 1.33-16.94 0-17.49s-2.81 7.95-2.81 7.95S43.64.99 42.2 1.24s-.84 9-.84 9-2.75-5.61-3.82-5.09.53 7.36.53 7.36-2-2.35-2.8-1.64A26.51 26.51 0 0 0 38.12 21l-2.78 4.7 8.28 2.89z" class="F"/><path d="M122.71 79.92l8.87 1.24s-6.49 55-8.4 61.79-3.63 11.67-10.15 12-29.75-19.2-29.75-19.2l-1.08 27 1.51 11.2s-28.41 14.93-57.3 1.94l.65-13.14-10.41-60.1-8.19-28.54L34.89 24l9.58 5-16.9 45.61 4.73 15.23 5.29-2.12 5.85-7.46s9.92-5.15 22.47 2l2 6.26s14.72 1.11 39.57 35.56l15.23-44.16z" class="I"/><path d="M59.3 79.92l1.12 7.7S68.68 93.1 72 95c0 0 8.12 51.28 2.11 61.37l-6.33 9.91s6.47 0 9.45-4.53c0 0-3.71 12.38-13.33 15.71 0 0 14.77-1.54 19.85-3.5l-1.51-11.2 2.43-62.45s2.29-4.18-16.75-11.67l-2.81-6.75-5.81-1.97z" fill="#000" class="H"/><path d="M67.88 44.62s3.1 4.54 3.47 7.07-.73 5.32 1.33 7.13 3 3 2.17 4l-1.93 2.3s.84 8.57-.49 10.38-8.57 0-8.57 0v5.68m0-16.44s-2.9-7.49-5.07-5.68-.24 11.71 5.07 9.54" class="B C E"/><path d="M63.07 63s3.45-.28 1.27-8.37 2.54-7 7.61-9.3 6.28-6.52 5.19-9.05-2.9-3.87-9.3-2.66c0 0-7-8.09-13.76.85 0 0-15.22-.24-19.32 7s1.33 25.72 9.3 31.88 15.76 1.23 17.38-4.56c0 0-5.43-2.93-2.65-9.69 0-.04 2.53-.94 4.28 3.9z" class="D"/><g class="B C"><path d="M15.86 98.09s36.83-26.71 68.93 0l-2.59 64.62 1.51 11.2s-27.14 12.71-57.3 1.94l.65-13.14-11.2-64.62z"/><g class="E"><path d="M37.1 88.38l6.34-8.08s12.43-4.3 22.47 2l2 6.26m16.88 9.53l32.07 36.88"/><path d="M83.31 135s21.25 19.77 29.72 20 9.88-10 9.88-10l8.67-63.8-8.87-1.24-15.26 44.23M131.43 81s1.11-7.21 4-8.85 6.32-8 5.22-9.83-4.46 4.12-7.49 5.26-5.49 6.74-5.91 9.17m12.47-14.69s0-8.33-1.53-7.94-1.74 10.94-1.74 10.94m-1.12 1.07s-1-4.67-3.75-6.95-4.47-1.05-4.16-.28 5 7 4.89 9.12"/><path d="M130.57 63.82s-7.55-3.46-7.57-1.39 4.6 2.87 4.6 2.87l1.5 3s-6.36-2-6-.41 3.2 1.94 3.2 1.94-3.09 3.06-2.22 10"/></g></g><path d="M79.34 174.66l1.93 13.52 20.47 63.73c2.7 10.42 4.25 34 5 44.81s7 29 7 29-.77 7.34-13.9 6.18c0 0-5.41-21.63-11.2-34.38S82 265.43 82 265.43l-28.2-51.76s-5.77 30.14-9.65 41.33c-4 11.54-31.27 75.57-29.36 71.08 0 0-3.86 2.32-12-3.48 0 0 5.79-19.31 7.33-29.74s9.66-34.38 9.66-34.38 1.93-45.19 5-59.1c0 0-2-15.32 2.27-26.14 16.925 5.527 35.09 6.021 52.29 1.42h0z" class="D"/><g class="C E"><path d="M38.35 204.59l12.66 3.68 1.84 4.49" stroke="#fff"/><g class="B"><path d="M100.12 330.32s-1.71 8.57-.31 10.33c.74.92 2.94.75 4 .77 2.44.05 4.89-.11 7.33-.27 4.88-.32 9.88-.27 14.59-1.78a46.42 46.42 0 0 0 11.27-5.11c1.92-1.28 0-3.35 0-3.35l-23.25-5.22"/><path d="M100 337.63s26.13 4.29 37-6.72M3.8 321.74s-3 10.29-2.56 13.53 3.69 4 7.49 3.91 5.36-1.79 5.92-4.36 0-10.88 0-10.88"/><path d="M1.2 333.7l13.45 1.12m21.66-310.5l1.81-3.35S34.41 12 35.34 10.9s3.08 2 3.08 2-2.2-7.13-.81-7.74 3.87 6 3.87 6-.65-9.55.79-10 3.17 9.08 3.17 9.08 1.86-8.48 3-8.56 0 17.49 0 17.49c2.3 1.13 9.06-1.63 9 .6s-13 7.36-13 7.36c-.226.294-.424.608-.59.94M15.86 98.09l-7.4-23.98 26.43-50.08 9.58 5.01-16.9 45.61 4.73 15.23M16.72 70.32s9.48-.08 10.85 4.33a19 19 0 0 0-11.71 3.24m32.18 1.37v-6.95"/></g></g><path d="M84.63 117.43L87 133.2s1.94-10.29 3.15-10.29 0 12.06 0 12.06 19.88 18 28.48 18.1c0 0-4.78 3.36-9.57.86s-25.79-19-25.79-19l1.36-17.5zM42.77 28.15L24.59 72.31s-6.33-.1-8.73 5.58l9.72-1.74 3.27 15 3.45-1.31-4.73-15.23L44.47 29l-1.7-.85z" class="H" fill="#000"/><path d="M293.31 105.81l-7.16-15.29-28.14 18.59 23.22 41.14 18.11-10.28-6.03-34.16zm23.19 132.25s4.55 12.63 5.22 18.78-1.38 32.05-.94 39.19 4.3 28.45 4.3 28.45-18.93 13.76-24.94 9.33c0 0 13.34-10.8 14.69-15.1l-4.32-29.19-4.29-34.52s-1.09-7.21-2.61-10.92-1.29-11.58-1.29-11.58l14.18 5.56z" class="F"/><g class="B C E"><path d="M316.1 236.94s4.92 13.3 6.07 22.85-2.31 31.21-1.17 41.64 2.31 16.2 4.33 21.69l-1 16.11h-2.59l-1-9.14s-4.06-1.69-6.52 4.16-11.55 6.62-15.86 3.23c0 0 0-2.62 3.24-4.93s11.7-9.53 13.24-13.84l-5.7-39.72c-1.08-9.72-2.77-27.39-4.93-33.09s-2.15-13.85-2.15-13.85"/><path d="M324.34 320.1s-12.69 13.8-23.34 13.71"/></g><path d="M300.14 333.81a11.26 11.26 0 0 0 5.2-.65c2.87-1 13.2-6 18.28-12.31l1.56 1.77-.82 16.24-2.61.37-1-9.14s-3.34-1.53-5.49 2.23-3.7 6.34-7.46 7.17-9.43-2-9.43-2-.99-1.49 1.77-3.68z" class="D"/><path d="M325.35 238.49a115.94 115.94 0 0 0 4.34 12.91c2.27 5.21 21.88 57.9 21.88 57.9s1.49 28.52 9.84 28.43-.33-19.93-.33-19.93L356 306.93s-1.94-31.93-4.34-43.67l-10.22-27.53-16.09 2.76z" class="F"/><g class="B C"><path d="M341.55 236.65s8.39 19.09 10.12 26.61 3.47 41.35 4.34 43.67 14.75 26.89 6.36 31.81S352 310.4 352 310.4s-19.37-53.8-22.27-59-6.07-20.25-6.07-20.25l17.89 5.5z"/><path d="M364 326.13s-.58 6.66-2.78 7.6-7.06-6.57-7.06-6.57" class="E"/></g><path d="M354.18 328.31s3 11.36 7 10.88 4.72-6.79 2.83-11.66c0 0-.67 5-2.78 6.2-2.13.03-7.05-5.42-7.05-5.42zm-35.41-190.96s10.11 13.8 17.12 36 6.29 64.72 6.29 64.72-26.09 8.39-51.38-2.27l4.63-95.8s16.27.3 23.34-2.65z" class="D"/><g class="F"><path d="M305.71 37.27s-7.86 7.36-8.78 12.18c-.759 3.374-1.977 6.627-3.62 9.67a7.05 7.05 0 0 0 3.53 2.76s.51 9.87 3.38 10.63l6.86-1.8.73 4.23 9.84-3.74v-5.7l7.5-4.9-2.67-12.81-12.2-5.7-4.57-4.82z"/><path d="M295.38 139.23l-.87-13.84s-6.4-12-4.37-16.36c2.24-4.79 15.7-22.53 15.7-22.53l-1.32-9.68 18.86-8.08.9 8.08-2.28 1.69 2.53 5.42s.16-1.61 4.54 6.56 20.88 37.24 22.18 42.82-25.66 25.24-34.76 29.88c0 0-1.05-2.25-11.86 6-2.75-.48-6.55-2.95-7.36-4.48s3.11-5.17 3.11-5.17 2.36-4.46 6.53-.89h4.44L336.76 135l-12.88-18.85-5.11 21.17s-16.53 5.02-23.39 1.91z"/></g><g class="B C"><path d="M304.52 76.82l1.35 9.89 18.41-9.89-.9-8.08-18.86 8.08z"/><path d="M305.87 86.71s-16.75 20.49-16.3 24.53 4.94 14.15 4.94 14.15l.92 14.6s13.55.37 23.34-2.64l5.11-21.17" class="E"/><path d="M336.76 135l-25.95-39.12s-2.55-9 3.59-12.21 11.48.86 13.39 3 22.51 41.83 23.47 46.6-20.8 23.85-33.39 29c0 0-5.73 3.44-5.73-3.62L336.76 135z"/><g class="E"><path d="M324.28 83.93l-2.43-5.8m-9.71 80.56h-5.22s-4.07-3.64-6 0-4.37 4.36-3.64 6.06 4.91 5.09 7.36 4.48S314 163 314 163M303.83 39.86s-6.13 5.36-6.81 8.33-.39 8-3.71 10.93c0 0 .17 2.4 3.53 2.76 0 0 1.72 9.47 3.38 10.63s11.82-4.08 15.8-6.24a5.27 5.27 0 0 0 2.09-2.91"/><path d="M299.07 64.77a7.72 7.72 0 0 0 4.76-2.81m-4.76-10.89s2.42-1.41 3.75.93"/></g></g><path d="M300.73 56.1c0 .81-.23 1.47-.6 1.49s-.71-.62-.75-1.42.23-1.48.6-1.5.71.62.75 1.43z" class="D"/><path d="M307.08 70.71l.81 4.67" class="B C E"/><g class="D"><path d="M314.94 55.48s1.5-2.91 3.17-1.21 4.84 9.56-3.71 7.69c0 0-.57 4.8 3.71 6s12.41-5.42 12.68-16.71-10.63-18.91-16.39-16.73c0 0-8.35-13.09-16.63-7.51s-2.7 14.17-4.46 16.11-5.52.12-5.64 5.33 8.59 4.68 8.59 4.68l1.05-5.74 7.21-7.53s-1.7 5.44 1.19 10.17c2.61 4.26 9.23 5.45 9.23 5.45z"/><path d="M330.79 51.25s4 .9 3.56 6.31-9.47 18.71-8.79 26.37l23.31 43.44s10.49-2 10-12.8-13.29-19.9-10.82-27.86 12.17-28.23-1.57-39.85-35.16 6.19-35.16 6.19l10.49-3.38 8.98 1.58z"/></g><g class="B C"><path d="M292.41 104.92l-6.26-14.4-28.14 18.59 23.22 41.14 14.08-7.75" class="E"/><path d="M266.77 129.46s-1.52-3.14.51-4.87 9-6.86 9-5.6c.046.306.027.618-.055.916s-.228.576-.425.814c-2 2.68-6.79 7-6.48 7.35 0 0 8.74-5.8 9.58-5.25.21.14.09.89-.64 1.62-2.395 2.132-4.924 4.109-7.57 5.92 0 0 9.22-3.57 10.41-3 .34.16.27.68-.8 1.33-2.677 1.455-5.431 2.764-8.25 3.92l2.31 3.86s-4.36.76-7.59-7.01z" class="F"/><path d="M317.01 64.77l.64 6.43"/></g><defs ><path id="B" d="M192.01 350.22c103.609 0 187.6-5.207 187.6-11.63s-83.991-11.63-187.6-11.63-187.6 5.207-187.6 11.63 83.991 11.63 187.6 11.63z"/><path id="C" d="M227.76 170.64a22.59 22.59 0 0 0 21.159-13.523c1.793-4.095 2.331-8.63 1.546-13.03s-2.858-8.469-5.957-11.691-7.083-5.452-11.45-6.408-8.919-.596-13.08 1.036a22.6 22.6 0 0 0-10.297 8.132c-2.553 3.67-3.959 8.015-4.041 12.484a22.58 22.58 0 0 0 6.301 16.077c4.148 4.312 9.837 6.802 15.819 6.923h0zm.79-38.54a16 16 0 0 1 8.833 2.876c2.595 1.811 4.595 4.351 5.747 7.299s1.403 6.17.723 9.261-2.262 5.91-4.545 8.102-5.164 3.657-8.28 4.212a16 16 0 0 1-9.224-1.099c-2.899-1.27-5.355-3.372-7.059-6.038a15.99 15.99 0 0 1-2.515-8.943 16 16 0 0 1 16.32-15.67z"/></defs></svg>